<?xml version="1.0" standalone="no"?><!DOCTYPE svg PUBLIC "-//W3C//DTD SVG 1.1//EN" "http://www.w3.org/Graphics/SVG/1.1/DTD/svg11.dtd"><svg class="icon" width="200px" height="200.00px" viewBox="0 0 1024 1024" version="1.1" xmlns="http://www.w3.org/2000/svg"><path d="M735.3 901l-76.8-169.4V702c0-5.7-4.6-10.3-10.3-10.3h-1.6c-6.1-1.7-15-12.6-22.3-34.8-8.5-25.6-13.2-59.7-13.4-96.2 0.2-0.8 0.2-1.7 0.2-2.5l-1.5-32.9c0-0.2-0.1-0.5-0.1-0.7-0.1-0.2-0.1-0.4-0.1-0.6-0.1-0.5-0.2-1.1-0.4-1.6 0-0.1-0.1-0.2-0.1-0.2-0.2-0.4-0.3-0.8-0.6-1.2-0.1-0.2-0.2-0.3-0.2-0.5l-0.6-0.9-0.4-0.4c-0.2-0.3-0.5-0.6-0.7-0.8l-0.4-0.4c-0.4-0.3-0.8-0.7-1.2-0.9-0.1-0.1-0.2-0.1-0.2-0.2-0.4-0.2-0.7-0.3-1.1-0.6l-0.3-0.1c-5.1-5.3-20-37.3-34.5-104.9-15.5-72.4-24-156.2-24-235.9 0-0.2 0-0.3-0.1-0.6 0.2-0.6 0.2-1.2 0.2-1.9 0-16.3-10.2-30.1-24.2-34.7V99.4c0-5.7-4.6-10.3-10.4-10.3-5.7 0-10.3 4.6-10.3 10.3v38.8c-14 4.6-24.3 18.4-24.3 34.6 0 0.7 0.1 1.3 0.2 2v0.6c0 79.7-8.6 163.4-24 235.9-14.4 67.1-29.2 99.2-34.4 104.7-2.8 1-5 3.3-6 6.2 0 0.1 0 0.2-0.1 0.2 0 0.2-0.1 0.4-0.1 0.6-0.1 0.2-0.2 0.5-0.2 0.8v0.2c-0.1 0.2-0.1 0.4-0.1 0.6 0 0.2-0.1 0.5-0.1 0.7l-1.4 32.9c-0.1 0.8 0 1.7 0.2 2.5-0.2 36.5-4.9 70.6-13.4 96.2-7.4 22.2-16.2 33.2-22.4 34.8h-1.5c-5.7 0-10.3 4.6-10.3 10.3v29.6L285.1 901c-1.5 3.2-1.2 6.9 0.7 9.9 1.9 2.9 5.2 4.7 8.7 4.7h77.7c5.7 0 10.3-4.6 10.3-10.3 0-1.2-0.2-2.2-0.5-3.2 0.3-1 0.5-2 0.5-3.1 0-70.4 57.3-127.7 127.7-127.7 70.5 0 127.7 57.3 127.7 127.7 0 1.2 0.2 2.1 0.5 3.1-0.3 1-0.5 2.1-0.5 3.2 0 5.7 4.6 10.3 10.3 10.3h77.7c3.6 0 6.8-1.8 8.7-4.7 2-3 2.2-6.7 0.7-9.9zM605.8 666.7c3.4 9.5 7.3 18 11.7 25h-41.6l-4.7-25h34.6z m-6.1-20.7h-32.5l-4.2-22.1h32.2c1.3 7.6 2.8 15 4.5 22.1z m-54-68.7h-68.3c-5 0-9.2 3.5-10.2 8.3l-1.8 8.8-22.7-25.4h134.9L557 592.1l-1.2-6.4c-0.9-4.8-5.1-8.4-10.1-8.4z m9.1 114.4h-88.6l19.5-93.6h51.5l17.6 93.6z m37.7-88.5H575l16-18c0.4 6.1 0.9 12 1.5 18z m-20.2-102.7c0.3 0.8 0.7 1.6 1 2.3l-32.5-14.4H568c1.4 4.4 2.9 8.3 4.3 12.1z m-51.7-314.7h3.5c0.2 16.9 0.7 33.2 1.4 48.9h-4.9v-48.9z m0 69.6h6.1c0.6 8.8 1.2 17.5 2 25.9h-8.1v-25.9z m0 46.7h10.2c0.9 8.9 1.9 17.6 3 25.9h-13.1v-25.9z m0 46.6h15.9c1.4 9.2 2.7 17.8 4.1 25.9h-20.1v-25.9z m0 46.6h23.8c1.9 9.8 3.6 18.4 5.3 25.9h-29.1v-25.9z m0 46.6h34c2.2 9.2 4.6 17.8 6.9 25.9h-40.9v-25.9z m0 60.3l29.8 13.2h-29.8v-13.2z m-24.2-316.4h3.5v48.9H495c0.7-15.7 1.2-32 1.4-48.9z m-2.7 69.6h6.1v25.9h-8.1c0.8-8.3 1.4-17 2-25.9z m-4 46.7h10.1V328h-13.1c1.1-8.3 2.1-16.9 3-25.9z m-5.8 46.6h15.9v25.9h-20.1c1.4-8.1 2.8-16.8 4.2-25.9z m-7.9 46.6h23.8v25.9h-29.1c1.7-7.5 3.4-16.1 5.3-25.9z m-10.1 46.6h34v25.9H459c2.3-8.2 4.6-16.8 6.9-25.9z m-17.8 58.6c1.4-3.8 2.9-7.8 4.3-12.1h27.2l-32.5 14.4c0.3-0.7 0.7-1.4 1-2.3z m51.7 1.7v13.2h-29.9l29.9-13.2z m-68.9 33.9h158.6l0.5 12.1H430.4l0.5-12.1z m-1.6 49.1l16 18h-17.5c0.7-6 1.2-11.9 1.5-18z m-4.2 38.6h34l-4.5 22.1h-33.9c1.7-7 3.2-14.4 4.4-22.1z m-10.5 42.9h35.6l-5.2 25h-42.1c4.5-7.1 8.3-15.5 11.7-25z m-32.1 45.6h255.4v11.2H382.5v-11.2z m-20.6 182.6h-51.3l9.9-22h43.6c-1.3 7.2-2 14.5-2.2 22z m7.4-42.8h-39.4l9.8-21.7h38.8c-3.5 6.9-6.6 14.2-9.2 21.7z m22.4-42.4h-42.6l9.8-21.7h52.8c-7.2 6.5-14 13.8-20 21.7z m187.1-42.5c-0.1 0-0.2 0.1-0.3 0.1-20.4-10.7-43.6-16.8-68.3-16.8-24.6 0-47.8 6.1-68.3 16.8-0.1 0-0.2-0.1-0.2-0.1h-73.2l10.5-23.1h262.7l10.5 23.1h-73.4z m49.9 42.5c-6-7.8-12.7-15.2-20.2-21.7h52.8l9.9 21.7h-42.5z m13.1 20.7h38.8l9.8 21.7H651c-2.5-7.5-5.6-14.8-9.2-21.7z m16.7 64.5c-0.2-7.4-0.9-14.8-2.2-22h43.6l9.9 22h-51.3z" fill="#1E1B1E" /><path d="M735.5 928.3H284.9c-0.4 0-0.8-0.3-0.8-0.8v-17.1c0-0.4 0.3-0.8 0.8-0.8h450.6c0.4 0 0.8 0.3 0.8 0.8v17.1c0 0.4-0.4 0.8-0.8 0.8z" fill="#6EA573" /><path d="M700.5 928.3H303.4c-0.6 0-1.1 0.5-1.1 1.1v15.7c0 0.6 0.5 1.1 1.1 1.1h397.1c0.6 0 1.1-0.5 1.1-1.1v-15.7c-0.1-0.6-0.5-1.1-1.1-1.1z" fill="#AAD264" /><path d="M533.7 327.9h-13.1V302h10.2c0.8 9 1.8 17.7 2.9 25.9zM450.2 666.7l-5.2 25h-42.1c4.5-7 8.3-15.5 11.7-25h35.6zM573.3 502.8l-32.5-14.4H568c1.4 4.3 2.9 8.3 4.3 12.1 0.3 0.9 0.7 1.6 1 2.3zM479.6 488.5l-32.5 14.4c0.3-0.7 0.7-1.5 1-2.3 1.4-3.8 2.9-7.8 4.3-12.1h27.2zM499.8 502.2v13.2h-29.9zM499.8 185.8v48.9h-4.9c0.7-15.7 1.2-32 1.4-48.9h3.5zM525.4 234.7h-4.9v-48.9h3.5c0.2 16.8 0.7 33.2 1.4 48.9zM499.8 302.1V328h-13.1c1.1-8.3 2.1-16.9 3.1-25.9h10zM499.8 395.3v25.9h-29.1c1.7-7.5 3.4-16.1 5.3-25.9h23.8zM549.7 421.2h-29.1v-25.9h23.8c1.9 9.8 3.6 18.4 5.3 25.9zM550.4 515.4h-29.8v-13.2zM709.8 894.9h-51.3c-0.2-7.4-0.9-14.8-2.2-22h43.6l9.9 22zM671.3 809.7h-42.6c-6-7.8-12.7-15.2-20.2-21.7h52.8l10 21.7zM364.1 872.9c-1.3 7.2-2.1 14.5-2.2 22h-51.3l9.9-22h43.6zM411.8 787.9c-7.4 6.5-14.1 13.9-20.1 21.7h-42.6l9.8-21.7h52.9zM382.5 712.3h255.4v11.2H382.5zM617.5 691.7h-41.6l-4.7-25h34.6c3.3 9.5 7.2 18 11.7 25zM577.7 569l-20.6 23.1-1.2-6.4c-1-4.9-5.2-8.4-10.2-8.4h-68.3c-5 0-9.2 3.5-10.2 8.3l-1.8 8.8-22.7-25.4h135z" fill="#FFD3AE" /><path d="M378.6 830.4c-3.6 6.9-6.7 14.2-9.3 21.7h-39.4l9.8-21.7h38.9zM690.5 852.1H651c-2.6-7.5-5.6-14.8-9.3-21.7h38.8l10 21.7zM652 767.2h-73.2c-0.1 0-0.2 0.1-0.3 0.1-20.4-10.7-43.6-16.8-68.3-16.8-24.6 0-47.8 6.1-68.3 16.8-0.1 0-0.2-0.1-0.2-0.1h-73.2l10.5-23.1h262.7l10.3 23.1zM599.7 646h-32.5l-4.2-22.1h32.2c1.3 7.6 2.8 15 4.5 22.1zM459.2 623.8l-4.5 22.1h-33.9c1.7-7 3.1-14.5 4.4-22.1h34zM528.7 281.4h-8.1v-25.9h6.1c0.6 8.8 1.2 17.5 2 25.9zM499.8 255.4v25.9h-8.1c0.7-8.3 1.4-17 2-25.9h6.1zM540.6 374.6h-20.1v-25.9h15.9c1.5 9.1 2.8 17.8 4.2 25.9zM499.8 348.7v25.9h-20.1c1.4-8.1 2.7-16.8 4.1-25.9h16zM561.5 467.8h-40.9v-25.9h34c2.2 9.1 4.6 17.7 6.9 25.9zM499.8 441.9v25.9h-40.9c2.4-8.2 4.7-16.8 6.9-25.9h34zM590 548.3H430.4l0.5-12.2h158.6z" fill="#FFB895" /></svg>