<?xml version="1.0" standalone="no"?><!DOCTYPE svg PUBLIC "-//W3C//DTD SVG 1.1//EN" "http://www.w3.org/Graphics/SVG/1.1/DTD/svg11.dtd"><svg class="icon" width="200px" height="200.00px" viewBox="0 0 1024 1024" version="1.1" xmlns="http://www.w3.org/2000/svg"><path d="M928.7 427.2c-12.2-8-27.9-8.9-40.9-2.2l-2.7 1.4c-20.5 10.1-44.2 10.6-65 1.3l19.4-38.8c20-4.5 34.2-22.2 34.2-42.7v-14.7c0-8.1-6.6-14.5-14.5-14.5-8.1 0-14.7 6.5-14.7 14.5v14.7c0 8-6.6 14.5-14.5 14.5H713.1V345c35.4-5.4 64.7-30.2 76.1-64.2l10.7-32.2c0.1-0.3 0.1-0.5 0.1-0.9 0.3-1.1 0.5-2.3 0.7-3.5v-58.6c0-4.7-2.3-9.2-6.1-11.9-3.7-2.7-8.6-3.5-13.1-2l-85.3 28.4h-2.5l14.7-30.4c19.9-4.5 34-22.2 34-42.5v-14.7c0-8-6.6-14.5-14.7-14.5-8 0-14.5 6.6-14.5 14.5v14.7c0 8.1-6.6 14.5-14.5 14.5H319.1c-8.1 0-14.7-6.5-14.7-14.5v-14.7c0-8-6.5-14.5-14.5-14.5-8.1 0-14.7 6.6-14.7 14.5v14.7c0.1 20.3 14.2 38.1 34.1 42.5l14.5 30.4h-2.4L236 171.7c-4.4-1.5-9.3-0.8-13.1 2-3.8 2.7-6 7.2-6 11.9v58.6c0 1.2 0.2 2.4 0.5 3.5 0 0.3 0 0.5 0.1 0.9l10.7 32.2c11.3 34 40.7 58.8 76.1 64.2v15.7H187.7c-8.1 0-14.7-6.6-14.7-14.5v-14.7c0-8.1-6.6-14.5-14.5-14.5-8.1 0-14.7 6.5-14.7 14.5v14.7c0.1 20.5 14.3 38.2 34.2 42.7l19.5 38.8c-20.8 9.3-44.6 8.7-65-1.3l-2.7-1.4c-13-6.7-28.7-5.8-40.9 2.2-12.4 8-19.2 22-18.4 36.6 1 14.7 9.6 27.6 22.9 34 11.7 5.8 23.6 10.9 35.9 15.5v256.1c-8.1 0-14.7 6.5-14.7 14.5v58.4c0 8.1 6.6 14.5 14.7 14.5h87.6c8 0 14.5-6.5 14.5-14.5v-58.4c0-8.1-6.6-14.5-14.5-14.5V652.7h87.5v116.8c-8 0-14.5 6.5-14.5 14.5v58.4c0 8.1 6.6 14.5 14.5 14.5H392c8.1 0 14.5-6.5 14.5-14.5V784c0-8.1-6.5-14.5-14.5-14.5V601.3l63.5-50.7H562l63.4 50.7v168.2c-8 0-14.5 6.5-14.5 14.5v58.4c0 8.1 6.6 14.5 14.5 14.5H713c8.1 0 14.5-6.5 14.5-14.5V784c0-8.1-6.5-14.5-14.5-14.5V652.7h87.6v116.8c-8.1 0-14.7 6.5-14.7 14.5v58.4c0 8.1 6.6 14.5 14.7 14.5h87.5c8.1 0 14.7-6.5 14.7-14.5V784c0-8.1-6.6-14.5-14.7-14.5V513.4c12.2-4.6 24.3-9.7 35.9-15.5 13.2-6.5 22-19.4 22.9-34 1-14.7-6-28.7-18.2-36.7zM202.3 827.9h-58.4v-29.2h58.4v29.2z m-14.6-87.6v29.2h-29.2v-29.2h29.2z m-29.2-29.2V594.3h29.2v116.8h-29.2z m145.9-87.6h-87.5v-29.2h87.5v29.2z m0-58.4H158.5v-42.4c31.4 8.7 63.8 13.2 96.3 13.2h49.5v29.2z m0-58.3h-49.5c-51.5-0.1-102.3-12.1-148.4-35.1-3.7-1.9-6.1-5.6-6.3-9.7-0.2-4.2 1.9-8.1 5.5-10.3 1.9-1.2 3.9-1.8 6.1-1.8 1.8 0 3.5 0.4 5 1.2l2.7 1.3c32.4 16.2 70.6 14.7 101.6-4h83.3v58.4z m0-87.6h-78.5L211.4 390h93.1v29.2zM806.3 390l-14.7 29.2h-78.5V390h93.2z m-131-218.9l-14 29.2h-305l-14-29.2h333zM246 233.5V206l68.5 22.7c1.5 0.5 3.1 0.8 4.6 0.8h379.5c1.5 0 3.1-0.2 4.6-0.8l68.4-22.7v27.6l-75.4 25.2H321.4L246 233.5z m131.5 594.4h-58.4v-29.2h58.4v29.2z m-14.7-87.6v29.2h-29.2v-29.2h29.2z m-29.2-29.2V404.6h29.2v306.5h-29.2z m0-335.6v-29.2h350.3v29.2H333.6z m321.1 335.6V404.6h29.2v306.5h-29.2z m29.2 29.2v29.2h-29.2v-29.2h29.2zM392 564v-13.5h16.7L392 564z m233.5 0l-16.7-13.5h16.7V564z m0-42.6H392v-29.2h233.5v29.2z m0-58.4H392v-58.4h233.5V463z m73.1 364.9h-58.4v-29.2h58.4v29.2z m0-510.8H319.1c-28.7 0-54-18.3-63-45.4l-1.4-4.6 59.8 20c1.5 0.4 3.1 0.8 4.6 0.8h379.5c1.5 0 3.1-0.2 4.6-0.8l59.8-20-1.4 4.6c-9.1 27.1-34.5 45.4-63 45.4z m131.3 394V594.3h29.2v116.8h-29.2z m29.2 29.2v29.2h-29.2v-29.2h29.2z m-146-175.2v-29.2h49.7c32.6 0 65-4.5 96.3-13.2v42.4h-146z m87.6 58.4h-87.6v-29.2h87.6v29.2z m73 204.4h-58.4v-29.2h58.4v29.2z m37.4-356.2c-46 23-96.8 35-148.3 35.1h-49.7v-58.4h83.3c30.9 18.6 69.2 20.2 101.6 4l2.7-1.3c3.7-2 8.2-1.8 11.7 0.4 3.5 2.3 5.5 6.3 5.2 10.5-0.2 4.3-2.7 8-6.5 9.7z" fill="#1E1B1E" /><path d="M815.3 798.7h58.4v29.2h-58.4z" fill="#FFB895" /><path d="M829.9 740.3h29.2v29.2h-29.2z" fill="#FFD3AE" /><path d="M829.9 594.3h29.2v116.8h-29.2z" fill="#FFB895" /><path d="M713.1 594.3h87.6v29.2h-87.6z" fill="#FFD3AE" /><path d="M859.1 522.7v42.4h-146v-29.2h49.7c32.6 0 64.9-4.4 96.3-13.2zM640.2 798.7h58.4v29.2h-58.4z" fill="#FFB895" /><path d="M654.7 740.3h29.2v29.2h-29.2z" fill="#FFD3AE" /><path d="M143.9 798.7h58.4v29.2h-58.4zM319.1 798.7h58.4v29.2h-58.4z" fill="#FFB895" /><path d="M333.6 740.3h29.2v29.2h-29.2zM158.5 740.3h29.2v29.2h-29.2zM216.9 594.3h87.5v29.2h-87.5z" fill="#FFD3AE" /><path d="M158.5 594.3h29.2v116.8h-29.2zM304.4 535.9v29.2H158.5v-42.4c31.4 8.7 63.8 13.2 96.3 13.2h49.6zM304.4 448.4v58.4h-49.5c-51.5-0.1-102.3-12.1-148.4-35.1-3.7-1.9-6.1-5.6-6.3-9.7-0.2-4.2 1.9-8.1 5.5-10.3 1.9-1.2 3.9-1.8 6.1-1.8 1.8 0 3.5 0.4 5 1.2l2.7 1.3c32.4 16.2 70.6 14.7 101.6-4h83.3zM304.4 390v29.2h-78.5L211.4 390zM806.3 390l-14.7 29.2h-78.5V390zM917.7 462.1c-0.3 4.2-2.8 7.9-6.7 9.6-46 23-96.8 35-148.3 35.1H713v-58.4h83.3c30.9 18.6 69.2 20.2 101.6 4l2.7-1.3c3.7-2 8.2-1.8 11.7 0.4 3.7 2.4 5.7 6.5 5.4 10.6zM654.7 404.6h29.2v306.5h-29.2zM333.6 404.6h29.2v306.5h-29.2zM392 492.2h233.5v29.2H392zM392 404.6h233.5V463H392z" fill="#FFB895" /><path d="M333.6 346.3h350.3v29.2H333.6z" fill="#FFD3AE" /><path d="M763 267.1l-1.4 4.6c-9.1 27.1-34.4 45.4-63 45.4H319.1c-28.7 0-54-18.3-63-45.4l-1.4-4.6 59.8 20c1.5 0.4 3.1 0.8 4.6 0.8h379.5c1.5 0 3.1-0.2 4.6-0.8l59.8-20z" fill="#FFB895" /><path d="M771.5 206v27.6l-75.4 25.2H321.4L246 233.5V206l68.5 22.7c1.5 0.5 3.1 0.8 4.6 0.8h379.5c1.5 0 3.1-0.2 4.6-0.8l68.3-22.7z" fill="#FFD3AE" /><path d="M675.3 171.1l-14 29.2h-305l-14-29.2z" fill="#FFB895" /><path d="M900.6 891h-787c-0.9 0-1.6-0.7-1.6-1.6v-30.9c0-0.9 0.7-1.6 1.6-1.6h787c0.9 0 1.6 0.7 1.6 1.6v30.9c-0.1 0.9-0.8 1.6-1.6 1.6z" fill="#6EA573" /><path d="M813.8 923.8H189.2c-0.8 0-1.5-0.7-1.5-1.5v-29.8c0-0.8 0.7-1.5 1.5-1.5h624.6c0.8 0 1.5 0.7 1.5 1.5v29.8c0 0.9-0.7 1.5-1.5 1.5z" fill="#AAD264" /></svg>