<?xml version="1.0" standalone="no"?><!DOCTYPE svg PUBLIC "-//W3C//DTD SVG 1.1//EN" "http://www.w3.org/Graphics/SVG/1.1/DTD/svg11.dtd"><svg class="icon" width="200px" height="200.00px" viewBox="0 0 1024 1024" version="1.1" xmlns="http://www.w3.org/2000/svg"><path d="M185.3 892.1H792c1.1 0 2.1-0.9 2.1-2.1v-30.3c0-1.1-0.9-2.1-2.1-2.1H185.3c-1.1 0-2.1 0.9-2.1 2.1V890c0.1 1.2 1 2.1 2.1 2.1z" fill="#AED46A" /><path d="M59.9 867.2h898.4c1.1 0 2.1-0.9 2.1-2.1v-30.3c0-1.1-0.9-2.1-2.1-2.1H59.9c-1.1 0-2.1 0.9-2.1 2.1v30.3c0 1.2 0.9 2.1 2.1 2.1z" fill="#74A971" /><path d="M894.4 277.4c-2.7 5.4-8.3 8.8-14.4 8.8H140.5c-6.1 0-11.6-3.4-14.3-8.8l196.2-135.9h375.8l196.2 135.9zM775.5 543.4c-13.4 0-24.2 10.8-24.2 24.1v72.4h48.3v-72.4c0-13.3-10.8-24.1-24.1-24.1z m-554.6-64.3v37.8c15.1-7.5 33-7.5 48.2 0v-37.8h-48.2z m80.4 0v37.8c15.2-7.5 33-7.5 48.2 0v-37.8h-48.2z m80.3 0v37.8c15.2-7.5 33.1-7.5 48.2 0v-37.8h-48.2z m80.4 0v48.7c28.4-22 68.1-22 96.5 0v-48.7H462z m209 0v37.8c15.2-7.5 33.1-7.5 48.3 0v-37.8H671z m80.4 0v37.8c15.2-7.5 33.1-7.5 48.3 0v-37.8h-48.3z m-56.3 64.3c-13.3 0-24.1 10.8-24.1 24.1v72.4h48.3v-72.4c0-13.3-10.8-24.1-24.2-24.1zM462 672.1v32.2h96.5v-32.2H462zM325.4 543.4c-13.3 0-24.1 10.8-24.1 24.1v72.4h48.2v-72.4c0-13.3-10.8-24.1-24.1-24.1z m80.3 0c-13.3 0-24.1 10.8-24.1 24.1v72.4h48.2v-72.4c0-13.3-10.7-24.1-24.1-24.1z m151.9 38.8c-5.3-26.2-30.7-43.1-56.9-37.9-22.9 4.5-38.6 25.9-38.6 49.2v46.4h32.2v-32.2c0-4.5 1.8-8.5 4.7-11.4 2.9-2.9 6.9-4.7 11.4-4.7 8.9 0 16 7.1 16 16v32.2h32.2v-48.2c-0.1-3.1-0.5-6.3-1-9.4z m57.1-38.8c-13.3 0-24.1 10.8-24.1 24.1v72.4h48.2v-72.4c0-13.3-10.8-24.1-24.1-24.1z m-24.1-64.3v37.8c15.2-7.5 33-7.5 48.2 0v-37.8h-48.2zM245 543.4c-13.4 0-24.1 10.8-24.1 24.1v72.4h48.2v-72.4c0-13.3-10.8-24.1-24.1-24.1z m50.9 128.7l-13.4 32.2h67v-32.2h-53.6z m-26.8 64.3l-13.4 32.1h93.7v-32.1h-80.3z m112.5-64.3v160.7h48.2V672.1h-48.2z m80.4 64.3v32.1h96.5v-32.1H462z m128.6-64.3v160.7h48.2V672.1h-48.2z m160.8 64.3H671v32.1h93.8l-13.4-32.1z m-26.8-64.3H671v32.2h67l-13.4-32.2z m131.3-128.7c-13.3 0-24.1 10.8-24.1 24.1v72.4H880v-72.4c0-13.3-10.8-24.1-24.1-24.1z m-24.1-64.3v37.8c15.2-7.5 33-7.5 48.2 0v-37.8h-48.2z m-80.4-160.7v32.2h64.3v-32.2h-64.3z m-369.8 0v32.2H462v-32.2h-80.4z m-80.3 0v32.2h48.2v-32.2h-48.2z m192.9 0v32.2h32.2v-32.2h-32.2z m64.3 0v32.2h80.4v-32.2h-80.4z m112.5 0v32.2h48.3v-32.2H671z m-466.2 0v32.2h64.3v-32.2h-64.3z m-64.3 160.7v37.8c15.2-7.5 33.1-7.5 48.3 0v-37.8h-48.3z m24.1 64.3c-13.3 0-24.1 10.8-24.1 24.1v72.4h48.3v-72.4c0-13.3-10.8-24.1-24.2-24.1z m77.8 257.2l-13.5 32.2h120.6v-32.2H242.4z m219.6 0v32.2h96.5v-32.2H462z m316.2 0H671v32.2h120.6l-13.4-32.2zM960.4 672.1v160.7h-134l-67-160.7zM261.1 672.1l-67 160.7h-134V672.1zM957.5 440.1c-3 4.3-8 7-13.2 6.9H76.2c-5.2 0-10.1-2.6-13.1-6.9l129.1-57.3h636.2l129.1 57.3z" fill="#F7C67F" /></svg>