<?xml version="1.0" standalone="no"?><!DOCTYPE svg PUBLIC "-//W3C//DTD SVG 1.1//EN" "http://www.w3.org/Graphics/SVG/1.1/DTD/svg11.dtd"><svg class="icon" width="200px" height="200.00px" viewBox="0 0 1024 1024" version="1.1" xmlns="http://www.w3.org/2000/svg"><path d="M795.1 731.2h-543c-1.2 0-2.1-0.9-2.1-2.1v-35.5c0-1.2 0.9-2.1 2.1-2.1h543c1.2 0 2.1 0.9 2.1 2.1v35.5c0 1.2-0.9 2.1-2.1 2.1z" fill="#AED46A" /><path d="M867.4 701H194.1c-0.8 0-1.5-0.7-1.5-1.5V674c0-0.8 0.7-1.5 1.5-1.5h673.4c0.8 0 1.5 0.7 1.5 1.5v25.5c-0.1 0.8-0.7 1.5-1.6 1.5z" fill="#74A971" /><path d="M953.9 297.1c-6.4-6.6-14.9-10-25.3-10-2.4 0-4.7 0.2-7.3 0.5-2.3 0.3-32.8 4-121.3 14.7-223 27.1-686 83.3-696.7 84.3h-0.8c-7.5 0-21.3 1.7-29.8 13.1-6.7 9-7.8 20.9-3.4 35.6 2.9 10.5 42.2 114.1 75.1 173.4 4.4 8 8.6 15 12.4 20.7 2.4 3.4 4.5 6.5 6.6 9.1 2.7 3.7 26.2 33.5 74.6 34h565c0.8 0 2.1 0.1 4.1 0.1 11.5 0 50.9-2.5 71.3-35 16.1-26 59.8-153.8 77.9-244 1.5-7.6 2.8-14.9 4-21.7 2.3-14.2 3.7-26.7 4.2-37v-0.9c0.2-6.7 1-24.7-10.6-36.9zM829.8 327c-3.3 3.8-6.5 7.6-9.7 11.5-0.1-3.4-0.1-6.8-0.1-10.1 3.2-0.4 6.5-0.9 9.8-1.4z m-35.3 5.2c0.5 10.7 0.6 26.9-0.4 36.7-34.5 40.3-68.1 78.6-99.8 114-10.1 4.5-20.2 9.1-30.4 13.7-11.1-20.4-23.2-41-36-61.3 27.1-29 54.5-59.5 81.5-90.7 27.5-4 56.1-8.1 85.1-12.4z m-2.6 78.2c-0.8 10-1.6 20.1-2.5 30-13 5.8-25.9 11.4-38.6 17.1 13.5-15.2 27.2-31 41.1-47.1z m-140.8 120c-18.7 20.3-36.8 39.6-53.9 57.4-8-6.9-16.1-14.2-24.3-21.5 25-11.7 51.3-23.7 78.2-35.9z m-98.2 17.1c-6-5.8-12.2-11.7-18.3-17.6 20.6-19.6 42-41 63.8-63.6 3.7-3.8 7.5-7.6 11.3-11.7 10.9 17.6 21.3 35.3 30.9 52.7-30.5 13.7-59.9 27.2-87.7 40.2zM670.7 350c-19 21.4-38.1 42.6-57.1 62.9-11.1-17-22.7-33.9-34.7-50.4 29.5-3.9 60.4-8.1 91.8-12.5z m-120.6 16.5c15.8 21.3 31 43.4 45.5 65.7-27.1 28.5-53.7 55.2-79.2 79.5-3.8-3.9-7.6-7.8-11.5-11.8 12.6-41.5 24.6-85.9 35.8-132.1 3.1-0.5 6.2-1 9.4-1.3zM528.2 559c-17.5 8.1-34.4 16.1-50.8 23.9 0.2-0.5 0.4-0.8 0.5-1.3 12.4-10.7 25.2-22.3 38.2-34.4 3.9 3.8 7.9 7.8 12.1 11.8zM415.9 383.5c31-3.8 63.8-7.8 97.7-12.3-9.1 37.3-18.8 73.3-28.9 107.5-24.5-26.1-49.4-54.1-74-83.1 1.8-4.2 3.6-8.3 5.2-12.1z m-114.5 12.8c22.2-2.3 45.9-4.9 70.3-7.6 3.2 3.8 6.3 7.5 9.4 11.2-16.3 37.9-40.1 92.6-63.7 144.1-8-7-16.1-14.2-24.3-21.5 4.7-48.8 7.1-95 8.3-126.2zM197.8 406c-1.2 5.2-2.5 10.4-3.7 15.5-2.3-4.9-4.5-9.8-6.8-14.6 3.4-0.3 6.9-0.6 10.5-0.9z m-43.4 167c-29-58.6-58.7-137.6-60.5-144.4l-0.2-0.6c-2.2-7.3-1.7-11.5-0.6-13.1 1.4-2 5.8-2.8 9.3-2.8h1.6c10.5-0.5 21.7-1 33.4-1.7 13.8 13.8 28.1 27.6 42.4 41.4 1.4 3.2 2.8 6.6 4.4 10.4-10.4 42.1-20.4 79.3-29.8 110.8z m95.6 73.9h-11.8c-37.2-0.4-53.6-22.6-54.3-23.6l-0.5-0.6c-3.6-4.5-7.7-10.6-12.2-18.1 9.2-28.8 19.1-63.3 29.3-102.9 18.2 46.1 34.8 94.7 49.4 144.9v0.3z m9.5-56c-10.6-32.9-22-65-34.1-95.8 13.9 13 27.7 25.7 41.1 37.8-2.1 20.6-4.4 39.9-7 58z m9.9-90.1c-18.1-16.5-36.7-34-55.5-51.9 3.5-14.7 7.1-29.8 10.6-45.2 16.3-1.4 33.6-3 51.2-4.8-1 25.5-3 62.2-6.3 101.9zM290 554c5.5 4.8 10.9 9.6 16.2 14.2-9.2 19.9-17.8 37.7-25.6 53.2 3.5-20.4 6.7-43 9.4-67.4z m69.6 86.3c-4.4 2.2-8.8 4.4-13 6.6h-50.2c8.8-17.3 18.9-37.8 29.8-61.3 18 15.3 35.3 29.6 51.4 42.5-6.2 4.4-12.2 8.4-18 12.2z m-22.1-78.9c18.6-40.3 39.4-87.3 62.1-139.8 25.5 29.8 51.2 58.4 76.6 84.9-6.5 20.8-13.1 40.8-19.8 59.6-19.7 17-39 32.6-57.2 46.2-19.1-14.9-39.8-32.1-61.7-50.9z m201.3 85.5h-86.5c4.1-9.5 8.2-19.5 12.2-29.6 26-12.5 54.1-25.8 83.6-39.5 10.6 9.8 21.1 19.3 31.5 28.3-14.2 14.6-27.9 28.3-40.8 40.8z m36.3 0c7.7-7.7 15.8-15.9 24-24.3 10.4 8.6 20.7 16.7 30.8 24.3h-54.8z m98.2 0c-18.1-12.4-37.1-26.7-56.5-42.7 15.2-15.8 31.1-32.8 47.8-50.8 15.6 32.4 28.4 63.8 38.1 93.5h-29.4z m56.1 0c-11.2-36-26.8-74.2-46.3-113.6 8.7-9.5 17.6-19.3 26.5-29.3 24.6-11 50.2-22.6 76.3-34.1-8.8 65.3-24 124.8-45.1 177h-11.4zM856.8 624c-13.5 21.3-41.5 23-49.7 23-1.6 0-2.5-0.1-2.6-0.1h-36.2c21.7-56.2 36.8-119.8 45-189.2 37.9-16.7 76.2-33.5 114.1-50-20 87.7-59 197.6-70.6 216.3zM939 333.7c-0.5 11.8-2.3 26.4-5.4 43.5-38.8 16.8-78.2 34.1-117.4 51.3 0.4-4.3 0.8-8.5 1-12.6 0.9-12.4 1.6-24.9 2.1-37.5 16.1-18.9 32.5-38.1 48.5-57.2 8.1-1.2 16.3-2.5 24.5-3.8 16.1-2.4 28.9-4.3 31.2-4.6l0.8-0.1h0.1c1.5-0.2 2.8-0.3 4-0.3 3.3 0 5.6 0.7 7 2.2 2.7 2.8 3.9 9 3.5 18.2v0.9z" fill="#1E1B1E" /><path d="M528.2 559c-17.5 8.1-34.4 16.1-50.8 23.9 0.2-0.5 0.4-0.8 0.5-1.3 12.4-10.7 25.2-22.3 38.2-34.4 3.9 3.8 7.9 7.8 12.1 11.8zM306.2 568.2c-9.2 19.9-17.8 37.7-25.6 53.2 3.5-20.5 6.6-43 9.3-67.5 5.6 4.9 11 9.7 16.3 14.3zM629.8 646.9h-54.7c7.7-7.7 15.8-15.9 24-24.3 10.3 8.6 20.6 16.7 30.7 24.3zM250 646.6v0.3h-11.8c-37.2-0.4-53.6-22.6-54.3-23.6l-0.5-0.6c-3.6-4.5-7.7-10.6-12.2-18.1 9.2-28.8 19.1-63.3 29.3-102.9 18.3 46.2 35 94.8 49.5 144.9zM927.3 407.7c-19.8 87.7-58.9 197.6-70.5 216.3-13.5 21.3-41.5 23-49.7 23-1.6 0-2.5-0.1-2.6-0.1h-36.2c21.7-56.2 36.8-119.8 45-189.2 37.8-16.7 76.1-33.5 114-50zM791.9 410.4c-0.8 10-1.6 20.1-2.5 30-13 5.8-25.9 11.4-38.6 17.1 13.5-15.2 27.2-31 41.1-47.1zM939 333v0.8c-0.5 11.8-2.3 26.4-5.4 43.5-38.8 16.8-78.2 34.1-117.4 51.3 0.4-4.3 0.8-8.5 1-12.6 0.9-12.4 1.6-24.9 2.1-37.5 16.1-18.9 32.5-38.1 48.5-57.2 8.1-1.2 16.3-2.5 24.5-3.8 16.1-2.4 28.9-4.3 31.2-4.6l0.8-0.1h0.1c1.5-0.2 2.8-0.3 4-0.3 3.3 0 5.6 0.7 7 2.2 2.8 2.9 3.9 9 3.6 18.3zM670.7 350c-19 21.4-38.1 42.6-57.1 62.9-11.1-17-22.7-33.9-34.7-50.4 29.5-3.9 60.4-8.1 91.8-12.5zM702.7 646.9h-29.3c-18.1-12.4-37.1-26.7-56.5-42.7 15.2-15.8 31.1-32.8 47.8-50.8 15.4 32.4 28.2 63.8 38 93.5zM651.1 530.4c-18.7 20.3-36.8 39.6-53.9 57.4-8-6.9-16.1-14.2-24.3-21.5 25-11.7 51.3-23.7 78.2-35.9zM579.6 606.1c-14.2 14.6-27.9 28.3-40.8 40.9h-86.5c4.1-9.5 8.2-19.5 12.2-29.6 26-12.5 54.1-25.8 83.6-39.5 10.6 9.7 21.1 19.2 31.5 28.2zM513.6 371.2c-9.1 37.3-18.8 73.3-28.9 107.5-24.5-26.1-49.4-54.1-74-83.1 1.8-4.2 3.6-8.2 5.2-12.1 30.9-3.8 63.8-7.9 97.7-12.3zM377.7 628.1c-6.2 4.4-12.3 8.5-18 12.3-4.4 2.2-8.8 4.4-13 6.6h-50.2c8.8-17.3 18.9-37.8 29.8-61.3 18 15.2 35.2 29.5 51.4 42.4zM266.5 532.9c-2.1 20.6-4.4 39.9-7 57.9-10.6-32.9-22-65-34.1-95.8 13.9 13.1 27.7 25.8 41.1 37.9z" fill="#F9D2AD" /><path d="M250 646.6v0.3h-11.8c-37.2-0.4-53.6-22.6-54.3-23.6l-0.5-0.6c-3.6-4.5-7.7-10.6-12.2-18.1 9.2-28.8 19.1-63.3 29.3-102.9 18.3 46.2 35 94.8 49.5 144.9z" fill="#F9D2AD" /><path d="M785.9 469.9c-8.8 65.3-24 124.8-45.1 177h-11.4c-11.2-36-26.8-74.2-46.3-113.6 8.7-9.5 17.6-19.3 26.5-29.3 24.6-11.1 50.2-22.6 76.3-34.1zM794.1 368.9c-34.5 40.3-68.1 78.6-99.8 114-10.1 4.5-20.2 9.1-30.4 13.7-11.1-20.4-23.2-41-36-61.3 27.1-29 54.5-59.5 81.5-90.7 27.6-4 56.1-8.1 85.1-12.4 0.5 10.7 0.6 26.9-0.4 36.7zM640.6 507.2c-30.5 13.9-59.9 27.4-87.7 40.3-6-5.8-12.2-11.7-18.3-17.6 20.6-19.6 42-41 63.8-63.6 3.7-3.8 7.5-7.6 11.3-11.7 11 17.6 21.3 35.2 30.9 52.6zM595.6 432.1c-27.1 28.5-53.7 55.2-79.2 79.5-3.8-3.9-7.6-7.8-11.5-11.8 12.6-41.5 24.6-85.9 35.8-132.1 3.1-0.4 6.2-0.8 9.4-1.2 15.7 21.3 31 43.4 45.5 65.6zM476.2 506.6c-6.5 20.8-13.1 40.8-19.8 59.6-19.7 17-39 32.6-57.2 46.2-19.1-15.1-39.8-32.3-61.7-51.1 18.6-40.3 39.4-87.3 62.1-139.8 25.4 30 51.2 58.6 76.6 85.1zM381.2 399.9c-16.3 37.9-40.1 92.6-63.7 144.1-8-7-16.1-14.2-24.3-21.5 4.6-48.8 7-94.9 8.2-126.2 22.2-2.3 45.9-4.9 70.3-7.6 3.2 3.7 6.3 7.5 9.5 11.2zM275.7 398.9c-1 25.5-3 62.2-6.3 101.9-18.1-16.5-36.7-34-55.5-51.9 3.5-14.7 7.1-29.8 10.6-45.2 16.3-1.4 33.6-3 51.2-4.8zM184.3 462.2c-10.5 42.2-20.5 79.4-29.9 110.9-29-58.6-58.7-137.6-60.5-144.4l-0.2-0.6v-0.1c-2.2-7.3-1.7-11.5-0.6-13.1 1.4-2 5.8-2.8 9.3-2.8h1.6c10.5-0.5 21.7-1 33.4-1.7 13.8 13.8 28.1 27.6 42.4 41.4 1.5 3.2 2.9 6.6 4.5 10.4z" fill="#F6B794" /></svg>