<?xml version="1.0" standalone="no"?><!DOCTYPE svg PUBLIC "-//W3C//DTD SVG 1.1//EN" "http://www.w3.org/Graphics/SVG/1.1/DTD/svg11.dtd"><svg class="icon" width="200px" height="200.00px" viewBox="0 0 1024 1024" version="1.1" xmlns="http://www.w3.org/2000/svg"><path d="M509.2 907.1h164.4V796.3h28.6l-17.9-28.6-12.5-64.4 12.5-17.8-23.2-23.3-5.3-51.8 14.2-32.2-25-28.6-5.3-55.4 14.3-17.8-32.2-23.3-7.2-57.1 16.1-9-26.8-23.2V312l10.7-16.1-26.8-16.1v-46.5l12.6-25-68-35.7-23.2-108.4h-3.6l-16 108.4-68 35.7 12.6 25v46.5l-26.8 16.1 10.7 16.1v51.8L391.3 387l16.1 9-7.2 57.1-32.2 23.3 14.3 17.8-5.3 55.4-25 28.6 14.2 32.2-5.3 51.8-23.2 23.3 12.5 17.8-12.5 64.4-17.9 28.6h28.6v110.8h164.4z" fill="#FFD3AE" /><path d="M536 308.8v-39.3c0-11.1-9-20.1-20.1-20.1-11.1 0-20.1 9-20.1 20.1v39.3H536zM536 401.8v-39.3c0-11.1-9-20.1-20.1-20.1-11.1 0-20.1 9-20.1 20.1v39.3H536zM536 494.7v-39.3c0-11.1-9-20.1-20.1-20.1-11.1 0-20.1 9-20.1 20.1v39.3H536zM536 594.8v-39.3c0-11.1-9-20.1-20.1-20.1-11.1 0-20.1 9-20.1 20.1v39.3H536zM536 694.8v-39.3c0-11.1-9-20.1-20.1-20.1-11.1 0-20.1 9-20.1 20.1v39.3H536zM536 794.9v-39.3c0-11.1-9-20.1-20.1-20.1-11.1 0-20.1 9-20.1 20.1v39.3H536z" fill="#F7C67F" /><path d="M686.3 939.5H344.6c-0.9 0-1.6-0.7-1.6-1.6v-19.1c0-0.9 0.7-1.6 1.6-1.6h341.8c0.9 0 1.6 0.7 1.6 1.6v19.1c-0.1 0.9-0.8 1.6-1.7 1.6z" fill="#6EA573" /><path d="M648.5 960.9H377.6c-0.8 0-1.5-0.7-1.5-1.5V941c0-0.8 0.7-1.5 1.5-1.5h270.9c0.8 0 1.5 0.7 1.5 1.5v18.4c0 0.8-0.7 1.5-1.5 1.5z" fill="#AAD264" /></svg>