<?xml version="1.0" standalone="no"?><!DOCTYPE svg PUBLIC "-//W3C//DTD SVG 1.1//EN" "http://www.w3.org/Graphics/SVG/1.1/DTD/svg11.dtd"><svg class="icon" width="200px" height="200.00px" viewBox="0 0 1024 1024" version="1.1" xmlns="http://www.w3.org/2000/svg"><path d="M728.9 959.8H281.2c-0.8 0-1.5-0.7-1.5-1.5v-36.1c0-0.8 0.7-1.5 1.5-1.5H729c0.8 0 1.5 0.7 1.5 1.5v36.1c0 0.8-0.7 1.5-1.6 1.5z" fill="#AED46A" /><path d="M825.7 927.6H184.4c-0.8 0-1.5-0.7-1.5-1.5V890c0-0.8 0.7-1.5 1.5-1.5h641.3c0.8 0 1.5 0.7 1.5 1.5v36c0 0.9-0.7 1.6-1.5 1.6z" fill="#74A971" /><path d="M817 542.4c4.7 0 8.9-2.5 11.2-6.6 2.2-4.1 2-8.9-0.4-12.8l-44.9-71.6c-2.3-3.8-6.3-6-10.8-6h-4.2v-82.5h49c4.7 0 8.9-2.5 11.2-6.5 2.2-4.1 2-9-0.4-12.9l-44.9-71.6c-2.3-3.7-6.3-6-10.8-6h-4.2v-82.4h49c5.8 0 11-4.1 12.3-9.8 1.4-5.7-1.3-11.7-6.6-14.3L757.8 56.1l-505.6 1.3-62.3 102.1c-5.3 2.7-8 8.6-6.6 14.3 1.3 5.7 6.5 9.8 12.3 9.8h43.1v82.6c-3.7 0.5-7 2.5-9 5.7l-44.9 71.6c-2.4 3.9-2.5 8.9-0.4 12.9 2.3 3.9 6.5 6.5 11.2 6.5h43.1v82.6c-3.7 0.5-7 2.5-9 5.8L184.8 523c-2.4 3.9-2.5 8.7-0.4 12.8 2.3 4.1 6.5 6.6 11.2 6.6h43.1V625c-3.7 0.5-7 2.5-9 5.7l-44.9 71.6c-2.4 3.9-2.5 8.9-0.4 12.9 2.3 4.1 6.5 6.5 11.2 6.5h43.1v82.8c-3.7 0.5-7 2.4-9 5.7l-44.9 71.6c-2.4 3.9-2.5 8.9-0.4 12.8 2.3 4.1 6.5 6.6 11.2 6.6H817c4.7 0 8.9-2.5 11.2-6.6 2.2-3.9 2-8.9-0.4-12.8l-44.9-71.6c-2.3-3.8-6.3-6-10.8-6h-4.2v-82.5h49c4.7 0 8.9-2.4 11.2-6.5 2.2-4.1 2-9-0.4-12.9l-44.9-71.6c-2.3-3.7-6.3-6-10.8-6h-4.2v-82.4H817zM223.4 158.3l43.7-80.1h478.3l43.7 80.1H223.4z m444.9 48.5c-22.3 0-40.4 18.1-40.4 40.4V266h-29.1v-18.8c0-22.3-18.2-40.4-40.4-40.4-22.3 0-40.4 18.1-40.4 40.4V266h-29.3v-18.8c0-22.3-18.1-40.4-40.4-40.4-22.3 0-40.4 18.1-40.4 40.4V266h-29.1v-18.8c0-22.3-18.1-40.4-40.4-40.4-22.3 0-40.4 18.1-40.4 40.4V266h-34v-82.4h478.6V266h-33.8v-18.8c0-22.3-18.2-40.4-40.5-40.4z m15.1 40.4V266h-30.2v-18.8c0-8.2 6.8-15.1 15.1-15.1 8.4 0 15.1 6.9 15.1 15.1z m-110 0V266h-30.2v-18.8c0-8.2 6.7-15.1 15.1-15.1 8.3 0 15.1 6.9 15.1 15.1z m-110.1 0V266h-30.2v-18.8c0-8.2 6.8-15.1 15.1-15.1 8.4 0 15.1 6.9 15.1 15.1z m-110 0V266h-30.2v-18.8c0-8.2 6.7-15.1 15.1-15.1 8.3 0 15.1 6.9 15.1 15.1z m-135 90.4l29-46.3h517.8l29 46.3H218.3z m450 48.6c-22.3 0-40.4 18.1-40.4 40.4v18.8h-29.1v-18.8c0-22.3-18.2-40.4-40.4-40.4-22.3 0-40.4 18.1-40.4 40.4v18.8h-29.3v-18.8c0-22.3-18.1-40.4-40.4-40.4-22.3 0-40.4 18.1-40.4 40.4v18.8h-29.1v-18.8c0-22.3-18.1-40.4-40.4-40.4-22.3 0-40.4 18.1-40.4 40.4v18.8h-34v-82.5h478.6v82.5h-33.8v-18.8c0-22.3-18.2-40.4-40.5-40.4z m15.1 40.5v18.8h-30.2v-18.8c0-8.4 6.8-15.1 15.1-15.1 8.4 0 15.1 6.7 15.1 15.1z m-110 0v18.8h-30.2v-18.8c0-8.4 6.7-15.1 15.1-15.1 8.3 0 15.1 6.7 15.1 15.1z m-110.1 0v18.8h-30.2v-18.8c0-8.4 6.8-15.1 15.1-15.1 8.4 0 15.1 6.7 15.1 15.1z m-110 0v18.8h-30.2v-18.8c0-8.4 6.7-15.1 15.1-15.1 8.3 0 15.1 6.7 15.1 15.1z m440.9 449.1H218.3l29-46.3h517.8l29.1 46.3zM668.3 745c-22.3 0-40.4 18.1-40.4 40.4v18.8h-29.1v-18.8c0-22.3-18.2-40.4-40.4-40.4-22.3 0-40.4 18.1-40.4 40.4v18.8h-29.3v-18.8c0-22.3-18.1-40.4-40.4-40.4-22.3 0-40.4 18.1-40.4 40.4v18.8h-29.1v-18.8c0-22.3-18.1-40.4-40.4-40.4-22.3 0-40.4 18.1-40.4 40.4v18.8h-34v-82.5h478.6v82.5h-33.8v-18.8c0-22.3-18.2-40.4-40.5-40.4z m15.1 40.4v18.8h-30.2v-18.8c0-8.4 6.8-15.1 15.1-15.1 8.4 0 15.1 6.7 15.1 15.1z m-110 0v18.8h-30.2v-18.8c0-8.4 6.7-15.1 15.1-15.1 8.3 0 15.1 6.7 15.1 15.1z m-110.1 0v18.8h-30.2v-18.8c0-8.4 6.8-15.1 15.1-15.1 8.4 0 15.1 6.7 15.1 15.1z m-110 0v18.8h-30.2v-18.8c0-8.4 6.7-15.1 15.1-15.1 8.3 0 15.1 6.7 15.1 15.1z m440.9-89.1H218.3l29-46.3h517.8l29.1 46.3zM668.3 565.7c-22.3 0-40.4 18.1-40.4 40.3v18.8h-29.1V606c0-22.2-18.2-40.3-40.4-40.3-22.3 0-40.4 18.1-40.4 40.3v18.8h-29.3V606c0-22.2-18.1-40.3-40.4-40.3-22.3 0-40.4 18.1-40.4 40.3v18.8h-29.1V606c0-22.2-18.1-40.3-40.4-40.3-22.3 0-40.4 18.1-40.4 40.3v18.8h-34v-82.4h478.6v82.4h-33.8V606c0-22.2-18.2-40.3-40.5-40.3z m15.1 40.3v18.8h-30.2V606c0-8.2 6.8-15 15.1-15 8.4 0 15.1 6.7 15.1 15z m-110 0v18.8h-30.2V606c0-8.2 6.7-15 15.1-15 8.3 0 15.1 6.7 15.1 15z m-110.1 0v18.8h-30.2V606c0-8.2 6.8-15 15.1-15 8.4 0 15.1 6.7 15.1 15z m-110 0v18.8h-30.2V606c0-8.2 6.7-15 15.1-15 8.3 0 15.1 6.7 15.1 15z m-135-89l29-46.3h517.8l29 46.3H218.3z" fill="#F7C67F" /><path d="M794.2 875.8H218.3l29.1-46.3h517.7z" fill="#F6B794" /><path d="M742.6 721.7v82.5h-33.8v-18.8c0-22.3-18.1-40.4-40.4-40.4-22.3 0-40.4 18.1-40.4 40.4v18.8h-29.1v-18.8c0-22.3-18.2-40.4-40.4-40.4-22.3 0-40.4 18.1-40.4 40.4v18.8h-29.3v-18.8c0-22.3-18.1-40.4-40.4-40.4-22.3 0-40.4 18.1-40.4 40.4v18.8h-29.1v-18.8c0-22.3-18.1-40.4-40.4-40.4-22.3 0-40.4 18.1-40.4 40.4v18.8H264v-82.5h478.6z" fill="#F9D2AD" /><path d="M794.2 696.3H218.3l29.1-46.2h517.7z" fill="#F6B794" /><path d="M742.6 542.4v82.4h-33.8V606c0-22.2-18.1-40.3-40.4-40.3-22.3 0-40.4 18.1-40.4 40.3v18.8h-29.1V606c0-22.2-18.2-40.3-40.4-40.3-22.3 0-40.4 18.1-40.4 40.3v18.8h-29.3V606c0-22.2-18.1-40.3-40.4-40.3-22.3 0-40.4 18.1-40.4 40.3v18.8h-29.1V606c0-22.2-18.1-40.3-40.4-40.3-22.3 0-40.4 18.1-40.4 40.3v18.8H264v-82.4h478.6zM742.6 362.9v82.5h-33.8v-18.8c0-22.3-18.1-40.4-40.4-40.4-22.3 0-40.4 18.1-40.4 40.4v18.8h-29.1v-18.8c0-22.3-18.2-40.4-40.4-40.4-22.3 0-40.4 18.1-40.4 40.4v18.8h-29.3v-18.8c0-22.3-18.1-40.4-40.4-40.4-22.3 0-40.4 18.1-40.4 40.4v18.8h-29.1v-18.8c0-22.3-18.1-40.4-40.4-40.4-22.3 0-40.4 18.1-40.4 40.4v18.8H264v-82.5h478.6z" fill="#F9D2AD" /><path d="M794.2 517H218.3l29.1-46.2h517.7zM794.2 337.6H218.3l29.1-46.3h517.7z" fill="#F6B794" /><path d="M742.6 183.6V266h-33.8v-18.8c0-22.3-18.1-40.4-40.4-40.4-22.3 0-40.4 18.1-40.4 40.4V266h-29.1v-18.8c0-22.3-18.2-40.4-40.4-40.4-22.3 0-40.4 18.1-40.4 40.4V266h-29.3v-18.8c0-22.3-18.1-40.4-40.4-40.4-22.3 0-40.4 18.1-40.4 40.4V266h-29.1v-18.8c0-22.3-18.1-40.4-40.4-40.4-22.3 0-40.4 18.1-40.4 40.4V266H264v-82.4h478.6z" fill="#F9D2AD" /><path d="M789.1 158.3H223.4l43.7-80.1h478.3z" fill="#F6B794" /></svg>