<?xml version="1.0" standalone="no"?><!DOCTYPE svg PUBLIC "-//W3C//DTD SVG 1.1//EN" "http://www.w3.org/Graphics/SVG/1.1/DTD/svg11.dtd"><svg class="icon" width="200px" height="200.00px" viewBox="0 0 1024 1024" version="1.1" xmlns="http://www.w3.org/2000/svg"><path d="M515.4 250.3c-245.9 0-445.1 46.9-445.1 104.9 0 4.8 1.3 9.5 4.1 14.1v0.1c29.4 51.2 215.5 90.7 441 90.7s411.7-39.5 441-90.8c2.7-4.6 4-9.3 4-14.1 0-58-199.3-104.9-445-104.9z m248.8 119c-26.4 26-124.3 45.5-241.9 46.1-2.9 0.1-5.7 0.1-8.7 0.1-5.8 0-11.5-0.1-17.2-0.2-112.2-1.9-204.4-21-229.9-46-4.7-4.6-7.1-9.2-7.1-14.1 0-33.3 114.7-60.3 256.1-60.3s256 27.1 256 60.3c-0.2 4.9-2.7 9.5-7.3 14.1z" fill="#FFB895" /><path d="M912.6 455.1v214.7c0 0.6 0 1.1-0.1 1.6-3.4 57.2-182.3 103.2-402.6 103.2-222.5 0-402.7-46.9-402.7-104.9 0-4.9 1.2-9.5 3.7-14.2V455.2c26.6 51.2 195 90.7 399 90.7s372.6-39.5 399-90.8h3.7z" fill="#AAD264" /><path d="M960.4 417v214.7c0 0.6 0 1.1-0.1 1.6-3.7 57.2-201.4 103.2-444.9 103.2-245.9 0-445.1-46.9-445.1-104.9 0-4.9 1.3-9.5 4.1-14.2V417.1c29.4 51.2 215.5 90.7 441 90.7s411.7-39.5 441-90.8h4z" fill="#6EA573" /><path d="M960.4 369.3V584c0 0.6 0 1.1-0.1 1.6-3.7 57.2-201.4 103.2-444.9 103.2C269.5 688.9 70.3 642 70.3 584c0-4.9 1.3-9.5 4.1-14.2V369.4c29.4 51.2 215.5 90.7 441 90.7s411.7-39.5 441-90.8h4z" fill="#FFD3AE" /><path d="M771.3 355.2c0 4.9-2.5 9.5-7.1 14.1-26.4 26-124.3 45.5-241.9 46.1 89-1 159.8-18.4 159.8-39.7 0-2.2-0.8-4.4-2.3-6.5-13.2-18.9-82.6-33.2-166.2-33.2-83.5 0-153 14.3-166.2 33.2-1.5 2.1-2.3 4.3-2.3 6.5 0 20.6 66.3 37.5 151.3 39.6-112.2-1.9-204.4-21-229.9-46-4.7-4.6-7.1-9.2-7.1-14.1 0-33.3 114.7-60.3 256.1-60.3s255.8 27 255.8 60.3z" fill="#FFD3AE" /><path d="M682 375.8c0 21.3-70.7 38.6-159.8 39.7-2.9 0.1-5.7 0.1-8.7 0.1-5.8 0-11.5-0.1-17.2-0.2-84.9-2.1-151.3-19-151.3-39.6 0-2.2 0.8-4.4 2.3-6.5 13.2-18.9 82.6-33.2 166.2-33.2s153 14.3 166.2 33.2c1.5 2.1 2.3 4.3 2.3 6.5z" fill="#FFB895" /></svg>