<?xml version="1.0" standalone="no"?><!DOCTYPE svg PUBLIC "-//W3C//DTD SVG 1.1//EN" "http://www.w3.org/Graphics/SVG/1.1/DTD/svg11.dtd"><svg class="icon" width="200px" height="200.00px" viewBox="0 0 1024 1024" version="1.1" xmlns="http://www.w3.org/2000/svg"><path d="M605.2 325.8v-26.5 620.3H409.5V63.9l50.6 111.3 43-111.3 57.4 132.2 41.4-132.2z" fill="#FFD3AE" /><path d="M539.9 432v-44.6c0-13.8-14.6-25.1-32.5-25.1s-32.5 11.3-32.5 25.1V432h65zM539.9 544.8v-44.6c0-13.8-14.6-25.1-32.5-25.1s-32.5 11.3-32.5 25.1v44.6h65zM539.9 657.5v-44.6c0-13.8-14.6-25.1-32.5-25.1s-32.5 11.3-32.5 25.1v44.6h65zM539.9 763.7v-44.6c0-13.8-14.6-25.1-32.5-25.1s-32.5 11.3-32.5 25.1v44.6h65zM539.9 883.1v-44.6c0-13.8-14.6-25.1-32.5-25.1s-32.5 11.3-32.5 25.1v44.6h65z" fill="#FFB895" /><path d="M507.7 260.9m-38.8 0a38.8 38.8 0 1 0 77.6 0 38.8 38.8 0 1 0-77.6 0Z" fill="#FFFFFF" /><path d="M603.6 937.3H413c-1.1 0-2 0.9-2 2v22.5c0 1.1 0.9 2 2 2h190.6c1.1 0 2-0.9 2-2v-22.5c0-1.1-0.9-2-2-2z" fill="#AAD264" /><path d="M399 943.9h216.3c0.7 0 1.3-0.6 1.3-1.3v-15c0-0.7-0.6-1.3-1.3-1.3H399c-0.7 0-1.3 0.6-1.3 1.3v15c0 0.7 0.6 1.3 1.3 1.3z" fill="#6EA573" /></svg>