<?xml version="1.0" standalone="no"?><!DOCTYPE svg PUBLIC "-//W3C//DTD SVG 1.1//EN" "http://www.w3.org/Graphics/SVG/1.1/DTD/svg11.dtd"><svg class="icon" width="200px" height="200.00px" viewBox="0 0 1024 1024" version="1.1" xmlns="http://www.w3.org/2000/svg"><path d="M635.8 439.1l21.4-3.6 31.3-5.2c7.8-1.3 13.2-8.8 11.8-16.6-0.9-5.7-5.1-10.3-10.7-11.6l-26.5-6.6c-2-0.5-4-1.1-5.9-2-12.2-4.6-22.5-13.4-28.9-24.9v-44.2c2.5-0.4 5-0.6 7.5-0.9l18.9-3.2 33.9-5.6c7.8-1.4 13.2-8.8 11.8-16.7-0.8-4.9-4-9-8.5-10.9-63.7-27.4-120-69.2-164.7-122.2V69.1c0-8-6.5-14.5-14.5-14.5s-14.5 6.5-14.5 14.5v95.8c-44.6 53-101 94.8-164.7 122.2-7.3 3.2-10.7 11.6-7.6 19 2 4.6 6 7.8 10.9 8.6l26.5 4.4 26.2 4.4c2.4 0.3 5 0.5 7.5 0.9v44.2c-7.4 13.3-20 23-34.8 26.9l-1.8 0.4-24.7 6.2c-7.7 2-12.5 9.8-10.5 17.5 1.4 5.6 5.9 9.8 11.6 10.7l23.5 3.9 29.1 4.9c2.4 0.4 5 0.6 7.5 1v44.2c-7.4 13.4-20 23-34.8 26.8l-1.8 0.5-24.7 6.2c-7.7 2-12.5 9.8-10.5 17.5 1.4 5.6 5.9 9.8 11.6 10.7l23.5 3.9 29.1 4.9c2.4 0.4 5 0.6 7.5 0.9V600c-7.4 13.4-20 23-34.8 26.8l-1.8 0.5-24.7 6.2c-7.7 1.9-12.5 9.8-10.5 17.5 1.4 5.5 5.9 9.8 11.6 10.7l23.5 3.9 29.1 4.9c2.4 0.4 5 0.6 7.5 0.9v44.3c-7.4 13.3-20 23-34.8 26.8l-1.8 0.4-24.7 6.2c-7.7 2-12.5 9.9-10.5 17.6 1.4 5.5 5.9 9.8 11.6 10.7l23.5 3.9 29.1 4.9c2.4 0.4 5 0.6 7.5 0.9v48.4h-43.4c-8 0-14.4 6.4-14.4 14.4v57.9c0 8 6.4 14.4 14.4 14.4h318.1c8 0 14.4-6.4 14.4-14.4v-57.9c0-8-6.4-14.4-14.4-14.4h-43.4V787c2.5-0.3 5-0.5 7.5-0.9l21.4-3.6 31.3-5.2c7.8-1.4 13.2-8.8 11.8-16.7-0.9-5.6-5.1-10.3-10.7-11.6l-26.5-6.6c-2-0.5-4-1.1-5.9-2-12.2-4.5-22.5-13.3-28.9-24.8v-44.3c2.5-0.3 5-0.5 7.5-0.9l21.4-3.6 31.3-5.2c7.8-1.3 13.2-8.8 11.8-16.7-0.9-5.6-5.1-10.2-10.7-11.6l-26.5-6.7c-2-0.5-4-1.1-5.9-2-12.2-4.5-22.5-13.3-28.9-24.8v-44.3c2.5-0.3 5-0.5 7.5-0.9l21.4-3.6 31.3-5.2c7.8-1.3 13.2-8.8 11.8-16.6-0.9-5.7-5.1-10.3-10.7-11.6l-26.5-6.7c-2-0.5-4-1.1-5.9-2-12.2-4.5-22.5-13.3-28.9-24.8v-44.2c2.9-0.2 5.5-0.4 7.9-0.8zM397 893.2h-28.9v-28.9H397v28.9z m-2.8-598.3l-8.1-1.4c11.4-6.3 22.5-12.9 33.3-20 34.4-22.9 65.8-50 93.3-81 28.3 31.9 60.7 59.8 96.4 83 9.8 6.3 19.9 12.4 30.2 18.1l-8.1 1.4c-21.9 3.7-44 5.5-66.3 5.5H460.5c-22.3-0.1-44.4-1.9-66.3-5.6z m205.2 33v30.4H425.9v-30.4c11.6 0.9 23.1 1.5 34.6 1.5h104.4c11.5 0 23-0.6 34.5-1.5zM454.8 893.2h-29v-28.9h29v28.9z m86.7 0h-57.8v-28.9h57.8v28.9z m57.9 0h-29v-28.9h29v28.9z m0-57.8H425.9v-44.9c11.6 0.9 23.1 1.5 34.6 1.5h104.4c11.6 0 23-0.5 34.6-1.5v44.9z m57.8 28.9v28.9h-28.9v-28.9h28.9z m-28.6-106.4c-21.1 3.4-42.3 5.1-63.7 5.1H460.5c-21.3 0-42.7-1.7-63.7-5.1 9.2-6.3 17.1-14.4 23.1-23.9h185.6c6 9.5 13.9 17.6 23.1 23.9z m-202.7-52.7v-30.4c11.6 1 23.1 1.5 34.6 1.5h104.4c11.6 0 23-0.5 34.6-1.5v30.4H425.9z m202.7-62.9c-21.1 3.4-42.3 5.1-63.7 5.1H460.5c-21.3 0-42.7-1.7-63.7-5.1 9.2-6.3 17.1-14.4 23.1-23.8h185.6c6 9.4 13.9 17.5 23.1 23.8z m-202.7-52.8v-30.4c11.6 1 23.1 1.5 34.6 1.5h104.4c11.6 0 23-0.5 34.6-1.5v30.4H425.9z m202.7-62.8c-21.1 3.3-42.3 5-63.7 5H460.5c-21.3 0-42.7-1.7-63.7-5 9.2-6.3 17.1-14.5 23.1-23.9h185.6c6 9.4 13.9 17.5 23.1 23.9z m-202.7-52.8v-30.4c11.6 0.9 23.1 1.4 34.6 1.4h104.4c11.6 0 23-0.5 34.6-1.4v30.4H425.9zM564.8 416H460.5c-21.3 0-42.7-1.7-63.7-5 9.2-6.3 17.1-14.5 23.1-23.9h185.6c6.1 9.4 13.9 17.5 23.1 23.9-21.1 3.3-42.4 5-63.8 5z" fill="#1E1B1E" /><path d="M648.6 975.4H384.1c-1 0-1.8-0.8-1.8-1.8v-25.4c0-1 0.8-1.8 1.8-1.8h264.5c1 0 1.8 0.8 1.8 1.8v25.4c0 1-0.8 1.8-1.8 1.8z" fill="#AAD264" /><path d="M701.5 951H327c-1 0-1.8-0.8-1.8-1.8v-25.4c0-1 0.8-1.8 1.8-1.8h374.5c1 0 1.8 0.8 1.8 1.8v25.4c0 1-0.8 1.8-1.8 1.8z" fill="#6EA573" /><path d="M628.3 864.3h28.9v28.9h-28.9zM570.4 864.3h29v28.9h-29zM483.7 864.3h57.8v28.9h-57.8zM425.9 864.3h29v28.9h-29zM368.1 864.3H397v28.9h-28.9z" fill="#FFB895" /><path d="M599.4 790.5v44.9H425.9v-44.9c11.6 0.9 23.1 1.5 34.6 1.5h104.4c11.5 0 23-0.5 34.5-1.5zM599.4 705.2H425.9v-30.4c11.6 1 23.1 1.5 34.6 1.5h104.4c11.6 0 23-0.5 34.6-1.5v30.4z" fill="#FFD3AE" /><path d="M628.6 757.9c-21.1 3.4-42.3 5.1-63.7 5.1H460.5c-21.3 0-42.7-1.7-63.7-5.1 9.2-6.3 17.1-14.4 23.1-23.9h185.6c6 9.5 13.9 17.6 23.1 23.9zM628.6 642.3c-21.1 3.4-42.3 5.1-63.7 5.1H460.5c-21.3 0-42.7-1.7-63.7-5.1 9.2-6.3 17.1-14.4 23.1-23.8h185.6c6 9.4 13.9 17.5 23.1 23.8z" fill="#FFB895" /><path d="M599.4 559.2v30.4H425.9v-30.4c11.6 1 23.1 1.5 34.6 1.5h104.4c11.5-0.1 23-0.6 34.5-1.5z" fill="#FFD3AE" /><path d="M628.6 526.7c-21.1 3.3-42.3 5-63.7 5H460.5c-21.3 0-42.7-1.7-63.7-5 9.2-6.3 17.1-14.5 23.1-23.9h185.6c6 9.4 13.9 17.5 23.1 23.9z" fill="#FFB895" /><path d="M599.4 443.6V474H425.9v-30.4c11.6 0.9 23.1 1.4 34.6 1.4h104.4c11.5-0.1 23-0.5 34.5-1.4z" fill="#FFD3AE" /><path d="M628.6 411c-21.1 3.3-42.3 5-63.7 5H460.5c-21.3 0-42.7-1.7-63.7-5 9.2-6.3 17.1-14.5 23.1-23.9h185.6c6 9.4 13.9 17.5 23.1 23.9z" fill="#FFB895" /><path d="M599.4 327.9v30.4H425.9v-30.4c11.6 0.9 23.1 1.5 34.6 1.5h104.4c11.5 0 23-0.6 34.5-1.5z" fill="#FFD3AE" /><path d="M639.2 293.5l-8.1 1.4c-21.9 3.7-44 5.5-66.3 5.5H460.5c-22.2 0-44.4-1.8-66.3-5.5l-8.1-1.4c11.4-6.3 22.5-12.9 33.3-20 34.4-22.9 65.8-50 93.3-81 28.3 31.9 60.7 59.8 96.4 83 9.7 6.3 19.8 12.3 30.1 18z" fill="#FFB895" /></svg>