<?xml version="1.0" standalone="no"?><!DOCTYPE svg PUBLIC "-//W3C//DTD SVG 1.1//EN" "http://www.w3.org/Graphics/SVG/1.1/DTD/svg11.dtd"><svg class="icon" width="200px" height="200.00px" viewBox="0 0 1024 1024" version="1.1" xmlns="http://www.w3.org/2000/svg"><path d="M945.6 367.7l-5.8-5.8c15.8-19.3 13.1-47.8-6.2-63.7-19.3-15.8-47.7-13.1-63.7 6.2-13.7 16.7-13.7 40.8 0 57.4l-5.8 5.8c-2.8 2.8-4.4 6.7-4.4 10.6v26.5l-241-53.6V333c0-8.3-6.8-15.1-15.1-15.1s-15.1 6.8-15.1 15.1v15.1H407.7V333c0-8.3-6.8-15.1-15.1-15.1s-15.1 6.8-15.1 15.1v18.1l-241 53.6v-26.5c0-4-1.6-7.8-4.4-10.6l-5.8-5.8c15.8-19.3 13.1-47.8-6.2-63.7s-47.7-13.1-63.7 6.2c-13.7 16.7-13.7 40.8 0 57.4l-5.8 5.8c-2.8 2.8-4.4 6.7-4.4 10.6V706c42.2 0 62.8 8.6 84.6 17.7 23.6 9.8 48 20 96.2 20s72.6-10.2 96.1-20c21.8-9.1 42.5-17.7 84.6-17.7s62.8 8.6 84.6 17.7c23.6 9.8 48 20 96.2 20s72.6-10.2 96.1-20c21.8-9.1 42.5-17.7 84.6-17.7 42.2 0 62.8 8.6 84.6 17.7 23.6 9.8 48 20 96.2 20V378.3c0.1-3.9-1.5-7.8-4.4-10.6z m-146.2 54.5l60.3 13.5v58.8l-60.3-15.9v-56.4zM709 453.7v-51.5l60.3 13.4v55.1l-60.4-15.9c0.1-0.4 0.1-0.8 0.1-1.1z m-90.4-71.6l60.3 13.4v51.3L618.6 431v-48.9z m-105.4-3.8h75.3v45.2h-75.3v-45.2z m-105.5 0H483v45.2h-75.3v-45.2z m-90.4 17.2l60.3-13.4V431l-60.3 15.8v-51.3z m-90.4 20l60.3-13.4v51.5c0 0.4 0 0.8 0.1 1l-60.4 15.9v-55z m-90.4 20.2l60.3-13.5v56.3l-60.3 15.9v-58.7z m0 138.5h90.4v-30.1h-90.4v-18.5l273.2-71.9h176.8l273.2 71.9v18.5h-90.4v30.1h90.4v15.1h-60.3v12.8c-10-1-20.1-1.5-30.1-1.5-2.9 0-5.8 0.1-8.7 0.1-130.6-145-354-156.7-499-26-9.1 8.2-17.9 16.9-26.1 26.1l-32.8 36.4c-26.8-2.6-43.2-9.4-60.4-16.7l-2.8-1.1h57.2v-30.1h-60.3v-15.1z m586 30.4c-20.2 3.9-35 10-49.4 16-21.8 9-42.4 17.6-84.6 17.6-42.2 0-62.8-8.6-84.6-17.7-23.5-9.8-47.9-20-96.1-20s-72.6 10.2-96.2 20.1c-18.8 7.8-36.9 15.3-68.8 17.1l15.3-16.9c119.4-132.7 323.7-143.4 456.4-24 2.6 2.6 5.3 5.2 8 7.8zM91.3 318.1c8.3 0 15.1 6.8 15.1 15.1 0 8.4-6.8 15.1-15.1 15.1s-15.1-6.7-15.1-15.1c0.1-8.3 6.8-15.1 15.1-15.1z m-15 66.4l6.2-6.2h17.7l6.2 6.2v223.1c-9.9-2.6-20-4.4-30.1-5.6V384.5z m843.6 327.3c-23.4-3-38.6-9.3-54.5-16-23.5-9.8-47.9-20-96.1-20-48.2 0-72.6 10.2-96.2 20-21.8 9.1-42.4 17.7-84.6 17.7-42.2 0-62.8-8.6-84.6-17.7-23.5-9.8-47.9-20-96.1-20s-72.6 10.2-96.2 20.1c-21.8 9-42.4 17.6-84.6 17.6-42.2 0-62.8-8.6-84.6-17.7-18.1-7.5-36.7-15.3-66.1-18.5v-44.9c23.4 2.9 38.6 9.3 54.4 15.9 23.6 9.8 48 20 96.2 20s72.6-10.2 96.1-20c21.8-9.1 42.5-17.7 84.6-17.7s62.8 8.6 84.6 17.7c23.6 9.8 48 20 96.2 20s72.6-10.2 96.1-20c21.8-9.1 42.5-17.7 84.6-17.7 42.2 0 62.8 8.6 84.6 17.7 18.1 7.5 36.7 15.3 66.1 18.5v45z m0-75.3c-10.3-1.3-20.3-3.5-30.1-6.7V384.5l6.2-6.2h17.7l6.2 6.2v252z m-15-288.3c-8.3 0-15.1-6.7-15.1-15.1 0-8.3 6.8-15.1 15.1-15.1s15.1 6.8 15.1 15.1c-0.1 8.4-6.9 15.1-15.1 15.1z" fill="#1E1B1E" /><path d="M919.9 333.1c0 8.4-6.8 15.1-15.1 15.1s-15.1-6.7-15.1-15.1c0-8.3 6.8-15.1 15.1-15.1s15.1 6.9 15.1 15.1zM106.4 333.1c0 8.4-6.8 15.1-15.1 15.1s-15.1-6.7-15.1-15.1c0-8.3 6.8-15.1 15.1-15.1s15.1 6.9 15.1 15.1z" fill="#FFD3AE" /><path d="M919.9 666.8v45c-23.4-3-38.6-9.3-54.5-16-23.5-9.8-47.9-20-96.1-20-48.2 0-72.6 10.2-96.2 20-21.8 9.1-42.4 17.7-84.6 17.7-42.2 0-62.8-8.6-84.6-17.7-23.5-9.8-47.9-20-96.1-20s-72.6 10.2-96.2 20.1c-21.8 9-42.4 17.6-84.6 17.6-42.2 0-62.8-8.6-84.6-17.7-18.1-7.5-36.7-15.3-66.1-18.5v-44.9c23.4 2.9 38.6 9.3 54.4 15.9 23.6 9.8 48 20 96.2 20s72.6-10.2 96.1-20c21.8-9.1 42.5-17.7 84.6-17.7s62.8 8.6 84.6 17.7c23.6 9.8 48 20 96.2 20s72.6-10.2 96.1-20c21.8-9.1 42.5-17.7 84.6-17.7 42.2 0 62.8 8.6 84.6 17.7 18.2 7.6 36.8 15.3 66.2 18.5z" fill="#6EA573" /><path d="M919.9 384.5v252c-10.3-1.3-20.3-3.5-30.1-6.7V384.5l6.2-6.2h17.7l6.2 6.2z" fill="#FFB895" /><path d="M859.7 435.7v58.7l-60.3-15.9v-56.3zM769.3 415.5v55.1l-60.4-15.9c0.1-0.3 0.1-0.7 0.1-1v-51.5l60.3 13.3zM678.9 395.5v51.3L618.6 431v-48.9zM513.2 378.3h75.3v45.2h-75.3zM407.7 378.3H483v45.2h-75.3zM377.6 382.1V431l-60.3 15.8v-51.3zM287.3 454.7l-60.4 15.9v-55.1l60.3-13.4v51.5c0 0.4 0 0.8 0.1 1.1zM196.8 422.2v56.3l-60.3 15.9v-58.7z" fill="#F7C67F" /><path d="M106.4 384.5v223.1c-9.9-2.6-20-4.4-30.1-5.6V384.5l6.2-6.2h17.7l6.2 6.2z" fill="#FFB895" /><path d="M769.3 544.1v30.1h90.4v15.1h-60.3v12.8c-10-1-20.1-1.5-30.1-1.5-2.9 0-5.8 0.1-8.7 0.1-130.6-145-354-156.7-499-26-9.1 8.2-17.9 16.9-26.1 26.1l-32.8 36.4c-26.8-2.6-43.2-9.4-60.4-16.7l-2.8-1.1h57.2v-30.1h-60.3v-15.1h90.4v-30.1h-90.4v-18.5l273.2-71.9h176.8l273.2 71.9v18.5h-90.3z" fill="#FFD3AE" /></svg>