<?xml version="1.0" standalone="no"?><!DOCTYPE svg PUBLIC "-//W3C//DTD SVG 1.1//EN" "http://www.w3.org/Graphics/SVG/1.1/DTD/svg11.dtd"><svg class="icon" width="200px" height="200.00px" viewBox="0 0 1024 1024" version="1.1" xmlns="http://www.w3.org/2000/svg"><path d="M575.6 954.2H456.7c-0.7 0-1.3-0.6-1.3-1.3v-18.3c0-0.7 0.6-1.3 1.3-1.3h118.9c0.7 0 1.3 0.6 1.3 1.3v18.3c0 0.7-0.6 1.3-1.3 1.3z" fill="#AED46A" /><path d="M601.1 938.6H425.5c-0.7 0-1.3-0.6-1.3-1.3V919c0-0.7 0.6-1.3 1.3-1.3h175.6c0.7 0 1.3 0.6 1.3 1.3v18.3c0.1 0.7-0.5 1.3-1.3 1.3z" fill="#74A971" /><path d="M592.7 172.4s-103.3 116.9-59 738h59v-738z" fill="#F6B794" /><path d="M499.2 71.1s-116.9 42.9-59 839.3h59V71.1z" fill="#F9D2AD" /></svg>