<?xml version="1.0" standalone="no"?><!DOCTYPE svg PUBLIC "-//W3C//DTD SVG 1.1//EN" "http://www.w3.org/Graphics/SVG/1.1/DTD/svg11.dtd"><svg class="icon" width="200px" height="200.00px" viewBox="0 0 1024 1024" version="1.1" xmlns="http://www.w3.org/2000/svg"><path d="M192 878.2c0 41.7 15.5 75.3 34.6 75.3h574.6c19.1 0 34.6-33.7 34.6-75.3H192z" fill="#AAD264" /><path d="M858.5 903.8H169.2c-12.9 0-22.8-22.4-22.8-49.7l11.4-24.8h712.6l11.4 24.8c-0.1 27.3-10.4 49.7-23.3 49.7z" fill="#6EA573" /><path d="M241.8 273.6c-12.9 0-23.3 10.4-23.3 23.3v46.5c0 12.9 10.4 23.3 23.3 23.3s23.3-10.4 23.3-23.3v-46.5c-0.1-12.9-10.4-23.3-23.3-23.3z m535.2 0c-12.9 0-23.3 10.4-23.3 23.3v46.5c0 12.9 10.4 23.3 23.3 23.3s23.3-10.4 23.3-23.3v-46.5c0-12.9-10.4-23.3-23.3-23.3z m81.5 395.6H602.4V576h69.9c51.4 0 93-41.6 93-93v-46.5c0-12.9-10.4-23.3-23.3-23.3H532.7v-69.9c0-32 26-58.1 58.2-58.1s58.2 26 58.2 58.1c0 12.9 10.4 23.3 23.3 23.3s23.3-10.4 23.3-23.3c0-57.8-46.9-104.7-104.7-104.7-21.5 0-41.6 6.5-58.2 17.7v-40.9c0-57.8 46.9-104.7 104.7-104.7 57.8 0 104.7 46.9 104.7 104.7 0 12.9 10.5 23.3 23.3 23.3 12.9 0 23.3-10.4 23.3-23.3 0-83.5-67.6-151.2-151.2-151.2-53.8 0-101.1 28.2-128 70.6-26.8-42.4-74.1-70.6-128-70.6-83.6 0-151.2 67.8-151.2 151.2 0 12.9 10.4 23.3 23.3 23.3 12.8 0 23.3-10.4 23.3-23.3 0-57.8 46.9-104.7 104.7-104.7 57.8 0 104.7 46.9 104.7 104.7v40.9c-16.6-11.2-36.7-17.7-58.2-17.7-57.8 0-104.7 46.9-104.7 104.7 0 12.9 10.4 23.3 23.3 23.3s23.3-10.4 23.3-23.3c0-32 26-58.1 58.2-58.1s58.2 26 58.2 58.1v69.9H276.7c-12.9 0-23.3 10.4-23.3 23.3V483c0 51.4 41.6 93 93 93h69.9v93.2h-256c-12.8 0-23.3 10.4-23.3 23.3v69.8c0 51.4 41.7 93.2 93.2 93.2h558.4c51.4 0 93.2-41.7 93.2-93.2v-69.8c-0.1-12.9-10.6-23.3-23.3-23.3z m-512-139.6c-25.6 0-46.5-20.9-46.5-46.5v-23.3h418.8v23.3c0 25.6-20.9 46.5-46.5 46.5H346.5z m209.4 46.5v93.2h-93v-93.2h93z m279.3 186.2c0 25.8-20.9 46.6-46.6 46.6H230.2c-25.8 0-46.6-20.9-46.6-46.6v-46.5h651.7v46.5z" fill="#1E1B1E" /><path d="M462.9 576.1h93v93.2h-93z" fill="#FFD3AE" /><path d="M835.2 715.8v46.5c0 25.8-20.9 46.6-46.6 46.6H230.2c-25.8 0-46.6-20.9-46.6-46.6v-46.5h651.6zM718.8 459.8v23.3c0 25.6-20.9 46.5-46.5 46.5H346.5c-25.6 0-46.5-20.9-46.5-46.5v-23.3h418.8z" fill="#FFB895" /></svg>