<?xml version="1.0" standalone="no"?><!DOCTYPE svg PUBLIC "-//W3C//DTD SVG 1.1//EN" "http://www.w3.org/Graphics/SVG/1.1/DTD/svg11.dtd"><svg class="icon" width="200px" height="200.00px" viewBox="0 0 1024 1024" version="1.1" xmlns="http://www.w3.org/2000/svg"><path d="M681.4 983.5H355.6c-1 0-1.8-0.8-1.8-1.8v-29.2c0-1 0.8-1.8 1.8-1.8h325.8c1 0 1.8 0.8 1.8 1.8v29.2c0 1-0.8 1.8-1.8 1.8z" fill="#AED46A" /><path d="M748.9 963.5H280.6c-1 0-1.8-0.8-1.8-1.8v-29.2c0-1 0.8-1.8 1.8-1.8h468.3c1 0 1.8 0.8 1.8 1.8v29.2c-0.1 1-0.9 1.8-1.8 1.8z" fill="#74A971" /><path d="M624.4 283.9H412.5c6.7-46.9 43.6-83.8 90.6-90.6V38.1h30.8v155.1c46.9 6.9 83.8 43.8 90.5 90.7z" fill="#F7C67F" /><path d="M564.5 571.2V396.1c31.8-15.2 54.7-45.4 59.9-81.4H412.5c5.2 36.1 28.1 66.2 59.9 81.4v175.1c-31.8 15.2-54.7 45.3-59.9 81.4h211.9c-5.2-36.1-28.1-66.3-59.9-81.4z m-30.6-9.3c-5.1-0.7-10.2-1.5-15.4-1.5-5.2 0-10.3 0.7-15.3 1.5V499H534v62.9z m0-93.7h-30.8v-63c5.1 0.7 10.2 1.6 15.3 1.6 5.3 0 10.3-0.8 15.4-1.6v63z" fill="#EDD1A9" /><path d="M648.2 898.4l-52.4-156c15.2-15.8 25.4-36.3 28.7-59h-212c3.2 22.7 13.4 43.2 28.6 59l-52.4 156H288.1v30.8h460.8v-30.8H648.2z m-145.1 0h-81.9L467 761.8c11 6.1 23.1 10.3 36 12.1v124.5z m30.8 0V773.9c12.9-1.8 24.9-6 36-12.1l45.8 136.6h-81.8z" fill="#F7C67F" /></svg>