<?xml version="1.0" standalone="no"?><!DOCTYPE svg PUBLIC "-//W3C//DTD SVG 1.1//EN" "http://www.w3.org/Graphics/SVG/1.1/DTD/svg11.dtd"><svg class="icon" width="200px" height="200.00px" viewBox="0 0 1024 1024" version="1.1" xmlns="http://www.w3.org/2000/svg"><path d="M656.9 674c0 82.8-2 162.7-5.6 238.2H627c-0.5-347.3-46.1-661.8-102.2-661.8S423.2 564.9 422.6 912.2h-29.1c-3.6-75.5-5.6-155.4-5.6-238.2 0-14.8 0.1-29.6 0.2-44.2 0-7.2 0.1-14.4 0.2-21.6 0-4.9 0.1-9.7 0.2-14.6 0-1.7 0.1-3.3 0.1-5 0-3.2 0.1-6.4 0.2-9.7 0-3.5 0.1-7.1 0.2-10.6 0-1.2 0-2.5 0.1-3.7 0.1-5.2 0.2-10.4 0.4-15.7 0-1.5 0.1-3.1 0.1-4.6 4.3-167.8 17-314.2 35.3-432.7h195c18.3 118.5 31 265 35.3 432.7 0 1.5 0.1 3.1 0.1 4.6 0.2 5.2 0.3 10.4 0.4 15.7 0 1.3 0.1 2.5 0.1 3.7 0.1 3.5 0.2 7.1 0.2 10.6 0.1 3.2 0.2 6.4 0.2 9.7 0 1.7 0 3.3 0.1 5 0.1 4.9 0.2 9.7 0.2 14.6 0.1 7.2 0.2 14.4 0.2 21.6 0.1 14.6 0.2 29.4 0.2 44.2z" fill="#EDD1A9" /><path d="M760 71.1v846.3H651c0.1-1.7 0.2-3.5 0.3-5.2 3.6-75.5 5.6-155.4 5.6-238.2 0-14.8-0.1-29.6-0.2-44.2 0-7.2-0.1-14.4-0.2-21.6 0-4.9-0.1-9.7-0.2-14.6 0-1.7 0-3.3-0.1-5 0-3.2-0.1-6.4-0.2-9.7 0-3.5-0.1-7.1-0.2-10.6 0-1.2 0-2.5-0.1-3.7-0.1-5.2-0.2-10.4-0.4-15.7 0-1.5-0.1-3.1-0.1-4.6v-1.1c-0.3-10.8-0.6-21.4-0.9-32.1-0.2-5-0.3-9.9-0.5-14.9-0.7-19.3-1.4-38.3-2.4-57.1-1.6-33.9-3.5-66.8-5.8-98.7-0.4-6.4-0.9-12.7-1.4-19-1.2-15.5-2.4-30.7-3.7-45.7-0.6-6.3-1.1-12.6-1.7-18.8-0.5-6-1.1-11.9-1.7-17.8-1-9.7-1.9-19.2-3-28.6-0.5-4.9-1-9.8-1.6-14.7-1.6-14.1-3.2-28-5-41.4-0.7-5.3-1.4-10.6-2.1-15.8-0.7-5.3-1.4-10.5-2.2-15.6-0.4-2.6-0.7-5.1-1.1-7.7-0.2-1.3-0.3-2.5-0.5-3.8H423.2c-0.2 1.3-0.4 2.5-0.5 3.8-0.4 2.5-0.7 5.1-1.1 7.7-0.7 5.1-1.5 10.3-2.2 15.6-0.7 5.2-1.4 10.5-2.1 15.8-1.7 13.5-3.4 27.3-5 41.4-0.6 4.9-1.1 9.8-1.6 14.7-1 9.4-2 18.9-3 28.6-0.6 5.9-1.2 11.8-1.7 17.8-0.6 6.2-1.2 12.5-1.7 18.8-1.3 15-2.5 30.2-3.7 45.7-0.5 6.3-1 12.6-1.4 19-2.3 31.9-4.2 64.9-5.8 98.7-0.9 18.8-1.7 37.8-2.4 57.1-0.2 4.9-0.3 9.9-0.5 14.9-0.3 10.6-0.7 21.3-0.9 32.1v1.1c0 1.5-0.1 3.1-0.1 4.6-0.2 5.2-0.3 10.4-0.4 15.7 0 1.3-0.1 2.5-0.1 3.7-0.1 3.5-0.2 7.1-0.2 10.6-0.1 3.2-0.2 6.4-0.2 9.7 0 1.7 0 3.3-0.1 5-0.1 4.9-0.2 9.7-0.2 14.6-0.1 7.2-0.2 14.4-0.2 21.6-0.1 14.6-0.2 29.4-0.2 44.2 0 82.8 2 162.7 5.6 238.2 0.1 1.8 0.2 3.5 0.3 5.2h-135V71.1h170.8c-0.8 5.1-1.7 10.2-2.5 15.4h190.7c-0.8-5.2-1.7-10.4-2.5-15.4H760z" fill="#F7C67F" /><path d="M651.3 912.2c-0.1 1.8-0.2 3.5-0.3 5.2H393.8c-0.1-1.7-0.2-3.5-0.3-5.2h29.1c0.5-347.3 46.1-661.8 102.2-661.8S626.4 564.9 627 912.2h24.3z" fill="#F7C67F" /><path d="M627 912.2v6.1H422.7v-6.1c0.5-347.3 46.1-661.8 102.2-661.8 56 0 101.6 314.5 102.1 661.8z" fill="#E6D0F7" /><path d="M717.7 931.4H293.1c-1.9 0-3.4 1.5-3.4 3.4v19.6c0 1.9 1.5 3.4 3.4 3.4h424.6c1.9 0 3.4-1.5 3.4-3.4v-19.6c0-1.8-1.5-3.4-3.4-3.4z" fill="#AED46A" /><path d="M767.7 925.4c0 7.3-5.9 13.2-13.2 13.2h-494c-3.7 0-6.9-1.5-9.3-3.9-2.4-2.4-3.9-5.7-3.9-9.3 0-6.7 5.1-12.3 11.6-13.1 0.5-0.1 1.1-0.1 1.7-0.1h494c2 0 3.9 0.4 5.5 1.2 1.4 0.7 2.7 1.5 3.8 2.7 2.4 2.3 3.8 5.7 3.8 9.3z" fill="#74A971" /></svg>