<?xml version="1.0" standalone="no"?><!DOCTYPE svg PUBLIC "-//W3C//DTD SVG 1.1//EN" "http://www.w3.org/Graphics/SVG/1.1/DTD/svg11.dtd"><svg class="icon" width="200px" height="200.00px" viewBox="0 0 1024 1024" version="1.1" xmlns="http://www.w3.org/2000/svg"><path d="M617.9 956.8h-211c-0.9 0-1.7-0.8-1.7-1.7v-18.4c0-0.9 0.8-1.7 1.7-1.7h211c0.9 0 1.7 0.8 1.7 1.7v18.4c-0.1 0.9-0.8 1.7-1.7 1.7z" fill="#AED46A" /><path d="M642.2 935H375.3c-0.9 0-1.7-0.8-1.7-1.7v-18.4c0-0.9 0.8-1.7 1.7-1.7h266.9c0.9 0 1.7 0.8 1.7 1.7v18.4c0 1-0.8 1.7-1.7 1.7z" fill="#74A971" /><path d="M650.1 904.6L600.7 763l29.5-82.5c0.7-2 0.4-4.2-0.8-6-1.2-1.7-3.2-2.7-5.3-2.7h-19.7l25.8-72.4c0.7-2 0.4-4.2-0.8-5.9-1.2-1.7-3.2-2.7-5.3-2.7h-19.7l25.8-72.4c0.7-2 0.4-4.2-0.8-5.9-1.2-1.8-3.2-2.8-5.3-2.8h-19.7l25.8-72.3c0.7-2 0.4-4.2-0.8-5.9-1.2-1.8-3.2-2.8-5.3-2.8h-20.4l26.7-99.9v-0.1c0.5-1.6 0.1-3.7-0.8-5.1L602.7 281l13.2-73.4c0.4-1.9-0.1-3.9-1.4-5.3-1.2-1.5-3-2.4-5-2.4-11.8-0.1-22.9-0.3-33.3-0.4v-65.7c0-3.6-2.9-6.5-6.5-6.5h-50.1V70.4c0-3.6-2.9-6.5-6.5-6.5s-6.5 2.9-6.5 6.5v56.8h-50c-3.6 0-6.5 2.9-6.5 6.5v65c-35.2 0.3-36.5 1.6-37.8 2.9-1.2 1.2-2 2.9-2 4.7 0 1.2 0 3.7 22.8 74.3l-37.8 41.7c-1.4 1.6-2.1 4.2-1.4 6.4l32.7 99.6H400c-2.2 0-4.2 1.1-5.4 2.9-1.2 1.9-1.4 4.2-0.5 6.2l31.4 71.9H400c-2.2 0-4.2 1.1-5.4 3-1.2 1.8-1.4 4.2-0.5 6.1l31.4 72H400c-2.2 0-4.2 1.1-5.4 2.9-1.2 1.8-1.4 4.2-0.5 6.2l31.4 71.9H400c-2.2 0-4.2 1.1-5.4 2.9-1.2 1.8-1.4 4.2-0.5 6.2l36.2 83L374.1 904c-0.8 2-0.6 4.3 0.7 6.1 1.2 1.8 3.3 2.9 5.4 2.9h263.7c2.2 0 4.1-1 5.4-2.7 1.1-1.5 1.4-3.7 0.8-5.7zM463 140.3h100.2v58.4c-95.9-0.1-99.4-0.1-100.2-0.1v-58.3z m-38 71.9c30.4-1 145 0.3 176.7 0.7l-11.4 62.9H445c-6.8-21.3-16-50.4-20-63.6z m18.2 76.6h149l19.9 31.4H414.8l28.4-31.4zM409 333.3h206.4L590 428.4H440.3L409 333.3z m161.9 108.1v15.5h-27.7v-15.5h27.7z m-90.1 0v15.5h-27.7v-15.5h27.7z m-70.8 0h30v22c0 3.6 2.9 6.5 6.5 6.5h40.8c3.6 0 6.5-2.9 6.5-6.5v-22h36.3v22c0 3.6 2.9 6.5 6.5 6.5h40.8c3.6 0 6.5-2.9 6.5-6.5v-22h30.7l-24.2 68H439.7l-29.7-68z m165.2 81.1v15.6h-27.6v-15.6h27.6z m-90.1 0v15.6h-27.7v-15.6h27.7z m-75.1 0h34.3v22.1c0 3.6 2.9 6.5 6.5 6.5h40.8c3.6 0 6.5-2.9 6.5-6.5v-22.1h36.4v22.1c0 3.6 2.9 6.5 6.5 6.5h40.7c3.6 0 6.5-2.9 6.5-6.5v-22.1h26.4l-24.2 68.1H439.7L410 522.5z m165.2 81.2v15.5h-27.6v-15.5h27.6z m-90.1 0v15.5h-27.7v-15.5h27.7z m-75.1 0h34.3v22c0 3.6 2.9 6.5 6.5 6.5h40.8c3.6 0 6.5-2.9 6.5-6.5v-22h36.4v22c0 3.6 2.9 6.5 6.5 6.5h40.7c3.6 0 6.5-2.9 6.5-6.5v-22h26.4l-24.2 68H439.7l-29.7-68z m165.2 81.1v15.5h-27.6v-15.5h27.6z m-90.1 0v15.5h-27.7v-15.5h27.7z m-75.1 0h34.3v22c0 3.6 2.9 6.5 6.5 6.5h40.8c3.6 0 6.5-2.9 6.5-6.5v-22h36.4v22c0 3.6 2.9 6.5 6.5 6.5h40.7c3.6 0 6.5-2.9 6.5-6.5v-22h26.4L589 756.5l-147.5 0.7-31.5-72.4z m-20.2 215.4l52-130 147.3-0.7 45.5 130.7H389.8z" fill="#1E1B1E" /><path d="M547.6 603.7h27.6v15.5h-27.6zM547.6 684.8h27.6v15.5h-27.6zM457.4 684.8h27.7v15.5h-27.7zM457.4 603.7h27.7v15.5h-27.7zM547.6 522.5h27.6v15.6h-27.6zM457.4 522.5h27.7v15.6h-27.7zM543.2 441.4h27.7v15.5h-27.7zM453.1 441.4h27.7v15.5h-27.7z" fill="#E6D0F7" /><path d="M634.6 900.2H389.8l52-130 147.3-0.7z" fill="#F7C67F" /><path d="M614.7 684.8l-25.6 71.7-147.5 0.7-31.6-72.4h34.3v22c0 3.6 2.9 6.5 6.5 6.5h40.8c3.6 0 6.5-2.9 6.5-6.5v-22h36.4v22c0 3.6 2.9 6.5 6.5 6.5h40.7c3.6 0 6.5-2.9 6.5-6.5v-22h26.5z" fill="#EDD1A9" /><path d="M614.7 603.7l-24.2 68H439.8l-29.7-68h34.3v22c0 3.6 2.9 6.5 6.5 6.5h40.8c3.6 0 6.5-2.9 6.5-6.5v-22h36.4v22c0 3.6 2.9 6.5 6.5 6.5h40.7c3.6 0 6.5-2.9 6.5-6.5v-22h26.4z" fill="#F7C67F" /><path d="M614.7 522.5l-24.2 68.1H439.7L410 522.5h34.3v22.1c0 3.6 2.9 6.5 6.5 6.5h40.8c3.6 0 6.5-2.9 6.5-6.5v-22.1h36.4v22.1c0 3.6 2.9 6.5 6.5 6.5h40.7c3.6 0 6.5-2.9 6.5-6.5v-22.1h26.5z" fill="#EDD1A9" /><path d="M614.7 441.4l-24.2 68H439.7l-29.7-68h30v22c0 3.6 2.9 6.5 6.5 6.5h40.8c3.6 0 6.5-2.9 6.5-6.5v-22h36.3v22c0 3.6 2.9 6.5 6.5 6.5h40.8c3.6 0 6.5-2.9 6.5-6.5v-22h30.8z" fill="#F7C67F" /><path d="M615.4 333.3l-25.3 95.1H440.3L409 333.3z" fill="#EDD1A9" /><path d="M612.1 320.2H414.8l28.4-31.4h149z" fill="#F7C67F" /><path d="M601.7 212.9l-11.4 62.9H445c-6.8-21.2-16.1-50.4-20.1-63.6 30.4-1.1 145.1 0.2 176.8 0.7z" fill="#EDD1A9" /><path d="M563.2 140.3v58.4c-95.9-0.1-99.4-0.1-100.2-0.1v-58.3h100.2z" fill="#F7C67F" /></svg>