<?xml version="1.0" standalone="no"?><!DOCTYPE svg PUBLIC "-//W3C//DTD SVG 1.1//EN" "http://www.w3.org/Graphics/SVG/1.1/DTD/svg11.dtd"><svg class="icon" width="200px" height="200.00px" viewBox="0 0 1024 1024" version="1.1" xmlns="http://www.w3.org/2000/svg"><path d="M91.7 507.5c-8 0-14.7-6.6-14.7-14.7v-29.3c0-8 6.6-14.7 14.7-14.7s14.7 6.6 14.7 14.7v29.3c0 8.1-6.6 14.7-14.7 14.7zM328.2 507.5c-8 0-14.7-6.6-14.7-14.7v-29.3c0-8 6.6-14.7 14.7-14.7 8 0 14.7 6.6 14.7 14.7v29.3c0 8.1-6.6 14.7-14.7 14.7zM210 507.5c-8 0-14.7-6.6-14.7-14.7v-29.3c0-8 6.6-14.7 14.7-14.7 8 0 14.7 6.6 14.7 14.7v29.3c-0.1 8.1-6.7 14.7-14.7 14.7zM269.1 507.5c-8 0-14.7-6.6-14.7-14.7v-29.3c0-8 6.6-14.7 14.7-14.7 8 0 14.7 6.6 14.7 14.7v29.3c0 8.1-6.7 14.7-14.7 14.7zM150.8 507.5c-8 0-14.7-6.6-14.7-14.7v-29.3c0-8 6.6-14.7 14.7-14.7 8 0 14.7 6.6 14.7 14.7v29.3c0 8.1-6.6 14.7-14.7 14.7zM683 507.5c-8 0-14.7-6.6-14.7-14.7v-29.3c0-8 6.6-14.7 14.7-14.7s14.7 6.6 14.7 14.7v29.3c-0.1 8.1-6.7 14.7-14.7 14.7zM801.2 507.5c-8 0-14.7-6.6-14.7-14.7v-29.3c0-8 6.6-14.7 14.7-14.7 8 0 14.7 6.6 14.7 14.7v29.3c0 8.1-6.7 14.7-14.7 14.7zM742.1 507.5c-8 0-14.7-6.6-14.7-14.7v-29.3c0-8 6.6-14.7 14.7-14.7s14.7 6.6 14.7 14.7v29.3c-0.1 8.1-6.7 14.7-14.7 14.7zM860.3 507.5c-8 0-14.7-6.6-14.7-14.7v-29.3c0-8 6.6-14.7 14.7-14.7 8 0 14.7 6.6 14.7 14.7v29.3c0 8.1-6.6 14.7-14.7 14.7zM919.4 507.5c-8 0-14.7-6.6-14.7-14.7v-29.3c0-8 6.6-14.7 14.7-14.7s14.7 6.6 14.7 14.7v29.3c0 8.1-6.6 14.7-14.7 14.7zM446.5 374.6c-8 0-14.7-6.6-14.7-14.7v-29.8c0-8 6.6-14.7 14.7-14.7s14.7 6.6 14.7 14.7v29.3c-0.1 8.6-6.7 15.2-14.7 15.2zM387.3 374.6c-8 0-14.7-6.6-14.7-14.7v-29.8c0-8 6.6-14.7 14.7-14.7S402 322 402 330.1v29.3c0 8.6-6.6 15.2-14.7 15.2zM505.6 374.6c-8 0-14.7-6.6-14.7-14.7v-29.8c0-8 6.6-14.7 14.7-14.7s14.7 6.6 14.7 14.7v29.3c-0.1 8.6-6.7 15.2-14.7 15.2zM623.8 374.6c-8 0-14.7-6.6-14.7-14.7v-29.8c0-8 6.6-14.7 14.7-14.7s14.7 6.6 14.7 14.7v29.3c0 8.6-6.6 15.2-14.7 15.2zM564.7 374.6c-8 0-14.7-6.6-14.7-14.7v-29.8c0-8 6.6-14.7 14.7-14.7s14.7 6.6 14.7 14.7v29.3c0 8.6-6.7 15.2-14.7 15.2z" fill="#231E23" /><path d="M387.3 360h236.5v295.6H387.3V360z" fill="#F7C67F" /><path d="M91.7 492.9h288.5V552H91.7v-59.1zM621.5 492.9H910V552H621.5v-59.1z" fill="#EDD1A9" /><path d="M91.7 552h295.6v103.6H91.7V552zM623.8 552h295.6v103.6H623.8V552z" fill="#F7C67F" /><path d="M505.6 670.2c-8 0-14.7-6.6-14.7-14.7v-29.3c0-8 6.6-14.7 14.7-14.7s14.7 6.6 14.7 14.7v29.3c-0.1 8.1-6.7 14.7-14.7 14.7zM446.5 670.2c-8 0-14.7-6.6-14.7-14.7v-29.3c0-8 6.6-14.7 14.7-14.7s14.7 6.6 14.7 14.7v29.3c-0.1 8.1-6.7 14.7-14.7 14.7zM564.7 670.2c-8 0-14.7-6.6-14.7-14.7v-29.3c0-8 6.6-14.7 14.7-14.7s14.7 6.6 14.7 14.7v29.3c0 8.1-6.7 14.7-14.7 14.7zM505.6 492.9c-8 0-14.7-6.6-14.7-14.7v-29.8c0-8 6.6-14.7 14.7-14.7s14.7 6.6 14.7 14.7v29.3c-0.1 8.5-6.7 15.2-14.7 15.2zM446.5 492.9c-8 0-14.7-6.6-14.7-14.7v-29.8c0-8 6.6-14.7 14.7-14.7s14.7 6.6 14.7 14.7v29.3c-0.1 8.5-6.7 15.2-14.7 15.2zM564.7 492.9c-8 0-14.7-6.6-14.7-14.7v-29.8c0-8 6.6-14.7 14.7-14.7s14.7 6.6 14.7 14.7v29.3c0 8.5-6.7 15.2-14.7 15.2z" fill="#231E23" /><path d="M91.7 684.9c0 24.6 19.9 44.5 44.5 44.5H875c24.6 0 44.5-19.9 44.5-44.5H91.7z" fill="#AAD264" /><path d="M948.8 700H62.4c-16.6 0-29.3-13.2-29.3-29.3L47.7 656h916.2l14.7 14.7c0 16.1-13.3 29.3-29.8 29.3z" fill="#6EA573" /><path d="M948.8 640.9h-14.7v-148c0-8-6.6-14.7-14.7-14.7h-281V360c0-8-6.6-14.7-14.7-14.7H387.3c-8 0-14.7 6.6-14.7 14.7v118.2h-281c-8 0-14.7 6.6-14.7 14.7v147.6H62.4c-16.6 0-29.3 13.2-29.3 29.3h945.5c0-15.7-13.3-28.9-29.8-28.9z m-44-133.4v132.9H639V507.5h265.8zM402 374.6h207.2v265.8H402V374.6zM106.4 507.5h265.8v132.9H106.4V507.5z" fill="#1E1B1E" /></svg>