<?xml version="1.0" standalone="no"?><!DOCTYPE svg PUBLIC "-//W3C//DTD SVG 1.1//EN"
  "http://www.w3.org/Graphics/SVG/1.1/DTD/svg11.dtd">
<svg class="icon" width="200px" height="200.00px" viewBox="0 0 1024 1024" version="1.1"
     xmlns="http://www.w3.org/2000/svg">
  <path d="M131.9 896c0 31.8 18.2 57.6 40.1 57.6h666.6c22 0 40.1-25.8 40.1-57.6H131.9z"
        fill="#AAD264"/>
  <path
    d="M905.3 914.9h-800c-14.4 0-26.5-17.4-26.5-37.9l13.6-18.9h827.2l13.6 18.9c-0.6 20.5-12.7 37.9-27.9 37.9z"
    fill="#6EA573"/>
  <path
    d="M897.7 705.1h-40.1V665c0-7.6-6.1-13.6-13.6-13.6h-40.1v-40.1c0-7.6-6.1-13.6-13.6-13.6H710V483.1l49.2-49.2c3.8-3.8 5.3-9.8 3-14.4-2.3-5.3-6.8-8.3-12.1-8.3h-53c-20.5 0-37.1-15.2-39.4-34.8l49.2-49.2c3.8-3.8 5.3-9.8 3-14.4-2.3-5.3-6.8-8.3-12.1-8.3h-53c-20.5 0-37.1-15.2-39.4-34.8l49.2-49.2c3.8-3.8 4.5-9.8 3-14.4-2.3-5.3-6.8-8.3-12.1-8.3h-53c-22 0-40.1-18.2-40.1-40.1v-26.5c0-16.7-10.6-31.8-26.5-37.9V64.2h-28V93c-15.9 5.3-26.5 20.5-26.5 37.9v26.5c0 22-18.2 40.1-40.1 40.1h-53c-5.3 0-9.8 3-12.1 8.3-2.3 5.3-0.8 10.6 3 14.4l49.2 49.2c-2.3 19.7-19.7 34.8-39.4 34.8h-53c-5.3 0-10.6 3-12.1 8.3-2.3 5.3-0.8 10.6 3 14.4l49.2 49.2c-2.3 19.7-19.7 34.8-39.4 34.8h-53c-5.3 0-10.6 3-12.1 8.3-2.3 5.3-0.8 10.6 3 14.4l49.2 49.2v114.4h-80.3c-7.6 0-13.6 6.1-13.6 13.6v40.1h-40.1c-7.6 0-13.6 6.1-13.6 13.6v40.1h-40.1c-7.6 0-13.6 6.1-13.6 13.6v53c0 7.6 6.1 13.6 13.6 13.6h247.7L316 842.2c-3.8 3.8-5.3 9.8-3 14.4 2.3 5.3 6.8 8.3 12.1 8.3h373.5c5.3 0 10.6-3 12.1-8.3 2.3-4.5 0.8-10.6-3-14.4L650 785.4h247.7c7.6 0 13.6-6.1 13.6-13.6v-53c0.1-7.6-6-13.7-13.6-13.7z m-66.6-26.5v26.5H609.9l-9.1-26.5h230.3z m-53-53v26.5H592.5l-9.1-26.5h194.7z m-347-106.9h-53c-7.6 0-13.6 6.1-13.6 13.6V599H338V492.2h347V599h-26.5v-66.7c0-7.6-6.1-13.6-13.6-13.6h-53c-7.6 0-13.6 6.1-13.6 13.6V599h-26.5v-66.7c0-7.6-6.1-13.6-13.6-13.6h-53c-7.6 0-13.6 6.1-13.6 13.6V599h-26.5v-66.7c-0.4-7.5-6.4-13.6-14-13.6z m-12.9 26.6v53h-26.5v-53h26.5z m212.9 0v53h-26.5v-53h26.5z m-75.8 80.3l9.1 26.5H525v-26.5h30.3z m17.5 53l9.1 26.5H525v-26.5h47.8z m18.1 53l9.1 26.5h-75v-26.5h65.9z m-39.3-506H613l-26.5 26.5h-34.1v-26.5h-0.8z m-53.8-94c0-7.6 6.1-13.6 13.6-13.6 7.6 0 13.6 6.1 13.6 13.6v13.6h-27.3v-13.6z m-0.8 40.2h29.5c2.3 9.8 6.1 18.9 12.1 26.5h-53c5.3-7.6 9.1-16.7 11.4-26.5z m28 53.8v26.5h-27.3v-26.5H525z m54.6 53c2.3 9.8 6.1 18.9 12.1 26.5H431.9c6.1-7.6 9.8-16.7 12.1-26.5h135.6z m-169.7-53h61.4v26.5h-34.1l-27.3-26.5z m-53 106H666l-26.5 26.5h-256l-26.6-26.5z m287.8 80.3H378.1c6.1-7.6 9.8-16.7 12.1-26.5h242.4c2.3 9.1 6.1 18.2 12.1 26.5z m-340.9 26.5h415.9L693.2 465H331.1l-27.3-26.6z m-59.1 187.2h194.7l-9.1 26.5H244.7v-26.5zM191 705.1v-26.5h231l-9.1 26.5H191z m306.8 133.3H356.9l53-53h87.9v53z m0-79.5h-75l9.1-26.5h65.9v26.5z m0-53.8H441l9.1-26.5h48.5v26.5h-0.8z m0-53h-39.4l9.1-26.5h30.3v26.5z m0-106.8h26.5v53h-26.5v-53z m168.1 293.1H525v-53h87.9l53 53z m219-79.5H628.1l-9.1-26.5h265.9v26.5z"
    fill="#1E1B1E"/>
  <path
    d="M525 131.6v13.6h-27.3v-13.6c0-7.6 6.1-13.6 13.6-13.6 7.7 0.8 13.7 6.8 13.7 13.6zM537.9 198.3h-53c6.1-7.6 9.8-16.7 12.1-26.5h29.5c1.6 9.8 5.4 18.9 11.4 26.5zM612.9 225.6l-27.3 26.5h-34v-26.5zM497.8 225.6h26.5v26.5h-26.5zM471.3 225.6v26.5h-34.1l-27.3-26.5z"
    fill="#F7C67F"/>
  <path
    d="M591.7 305.1H431.9c6.1-7.6 9.8-16.7 12.1-26.5h136.4c0.7 9.9 5.2 18.9 11.3 26.5zM665.9 331.6l-26.5 26.5h-256l-26.5-26.5zM644.7 411.9H378.1c6.1-7.6 9.8-16.7 12.1-26.5h242.4c2.3 9.1 6.1 18.2 12.1 26.5z"
    fill="#FFD3AE"/>
  <path
    d="M719 438.4L692.5 465H330.4l-26.6-26.6zM684.9 492.2V599h-26.5v-66.7c0-7.6-6.1-13.6-13.6-13.6h-53c-7.6 0-13.6 6.1-13.6 13.6V599h-26.5v-66.7c0-7.6-6.1-13.6-13.6-13.6h-53c-7.6 0-13.6 6.1-13.6 13.6V599H445v-66.7c0-7.6-6.1-13.6-13.6-13.6h-53c-7.6 0-13.6 6.1-13.6 13.6V599h-26.5V492.2h346.6zM563.7 652.1H525v-26.5h30.3zM497.8 625.6v26.5h-39.4l9.1-26.5zM497.8 678.6v26.5H441l9-26.5zM581.9 705.1H525v-26.5h47.8zM497.8 731.6v27.3h-74.3l8.4-27.3zM599.3 758.9H525v-27.3h65.9z"
    fill="#FFB895"/>
  <path
    d="M422 678.6l-9.1 26.5H191v-26.5zM439.4 625.6l-9.1 26.5H244.7v-26.5zM778.1 625.6v26.5H592.5l-9.1-26.5zM831.1 678.6v26.5H609.9l-9.1-26.5zM884.9 731.6v27.3H628.1l-9.1-27.3z"
    fill="#FFD3AE"/>
  <path d="M665.9 838.4H525v-53h87.9zM497.8 785.4v53H356.9l53-53z" fill="#FFB895"/>
  <path d="M139.4 731.6v27.3h256.9l9-27.3z" fill="#FFD3AE"/>
</svg>
