<?xml version="1.0" standalone="no"?><!DOCTYPE svg PUBLIC "-//W3C//DTD SVG 1.1//EN" "http://www.w3.org/Graphics/SVG/1.1/DTD/svg11.dtd"><svg class="icon" width="200px" height="200.00px" viewBox="0 0 1024 1024" version="1.1" xmlns="http://www.w3.org/2000/svg"><path d="M887.9 904.9H129.7c-3.5 0-6.4 2.8-6.4 6.3s2.9 6.3 6.4 6.3h758.2c3.5 0 6.3-2.8 6.3-6.3s-2.8-6.3-6.3-6.3z m-162.1-674H718v7.9l7.9-0.1-0.1-7.8z m17.8-122.4l-3.9 6.8 6.8 3.9 3.9-6.8-6.8-3.9z m-7.8 13.8l-3.9 6.9 6.9 3.8 3.9-6.8-6.9-3.9z m-7.9 13.7l-3.9 6.9 6.9 3.9 3.9-6.9-6.9-3.9z m-7.6 13.9l-3.9 6.8 6.8 3.9 3.9-6.8-6.8-3.9z m-7.9 13.7l-3.9 6.9 6.9 3.9 3.9-6.9-6.9-3.9z m-7.8 13.7l-3.8 6.9 6.8 3.9 3.9-6.9-6.9-3.9z m-7.7 13.9L693 198l6.9 3.9 3.8-6.8-6.8-3.9z m-90.3-80.5l-6.8 4 4 6.8 6.8-4-4-6.8z m8 13.6l-6.8 4 4 6.8 6.8-4-4-6.8z m8.1 13.6l-6.9 4 4 6.8 6.8-4-3.9-6.8z m7.9 13.6l-6.8 4 4 6.8 6.8-4-4-6.8z m8.1 13.6l-6.8 4 4 6.8 6.8-4-4-6.8z m8.1 13.6l-6.8 4 4 6.8 6.8-4-4-6.8z m8 13.6l-6.8 4 3.9 6.8 6.9-4-4-6.8z m-121.7 42.2l0.1 7.8h7.8v-7.9l-7.9 0.1z m23.7-0.3h-7.9l0.1 7.9h7.9l-0.1-7.9z m7.9-0.1l0.1 7.9 7.8-0.1v-7.8h-7.9z m23.7-0.3l-7.8 0.1v7.9l7.9-0.1-0.1-7.9z m8 0l0.1 7.8h7.8v-7.9l-7.9 0.1z m23.6-0.2h-7.8v7.9h7.9l-0.1-7.9z m15.9-0.3l-7.9 0.1 0.1 7.9 7.9-0.1-0.1-7.9z m-28.5 119.6l-3.9 6.9 6.9 3.9 3.8-6.9-6.8-3.9z m7.7-13.7l-3.8 6.9 6.8 3.9 3.9-6.9-6.9-3.9z m7.8-13.7l-3.9 6.8 6.9 3.9 3.9-6.8-6.9-3.9z m7.9-13.9l-3.9 6.9 6.8 3.9 3.9-6.9-6.8-3.9z m7.7-13.7l-3.9 6.9 6.9 3.9 3.9-6.9-6.9-3.9z m7.8-13.8l-3.9 6.8 6.9 3.9 3.9-6.8-6.9-3.9z m7.8-13.9l-3.9 6.9 6.8 3.9 3.9-6.9-6.8-3.9z m96 80.6l-6.8 4 4 6.8 6.8-4-4-6.8z m-7.9-13.6l-6.8 3.9 3.9 6.9 6.8-4-3.9-6.8z m-8.1-13.6l-6.8 3.9 4 6.9 6.8-4-4-6.8z m-8-13.8l-6.8 4 4 6.8 6.8-3.9-4-6.9z m-8.1-13.6l-6.8 4 4 6.8 6.8-4-4-6.8z m-7.9-13.6l-6.9 4 4 6.8 6.8-4-3.9-6.8zM702 269l-6.8 4 4 6.8 6.8-4-4-6.8z m110.9-39v7.9l7.9-0.1v-7.9l-7.9 0.1z m-7.9 0l-7.9 0.1 0.1 7.9 7.9-0.1-0.1-7.9z m-23.7 0.3v7.9l7.9-0.1v-7.8h-7.9z m-8 0.1l-7.9 0.1 0.1 7.8h7.9l-0.1-7.9z m-15.9 0.1l-7.8 0.1v7.9l7.9-0.1-0.1-7.9z m-15.7 0.2l-7.9 0.1 0.1 7.9 7.9-0.1-0.1-7.9z m-30.9 16.9l-6.4 11 11 6.3 6.4-11-11-6.3z m69.7-79.3l-11 6.3 6.3 11 11-6.3-6.3-11z m-21.9 12.6l-11 6.3 6.3 11 11-6.3-6.3-11z m-22 12.7l-11 6.3 6.3 11 11-6.3-6.3-11z m-21.9 12.6l-11 6.3 6.3 11 11-6.3-6.3-11zM670 112.6v12.6h12.6v-12.6H670z m0 25.3v12.6h12.6v-12.6H670z m0 25.3v12.6h12.6v-12.6H670z m0 25.2v12.7h12.6v-12.7H670z m-97.2-19l-6.4 11 11 6.4 6.4-11-11-6.4z m21.9 12.7l-6.4 11 11 6.3 6.4-11-11-6.3z m21.9 12.6l-6.4 11 11 6.3 6.4-11-11-6.3z m22 12.8l-6.4 11 11 6.3 6.4-11-11-6.3z m-60.5 79.3l-11 6.3 6.3 11 11-6.3-6.3-11zM600 274l-11 6.3 6.3 11 11-6.3-6.3-11z m21.9-12.6l-11 6.3 6.3 11 11-6.3-6.3-11z m22-12.7l-11 6.3 6.3 11 11-6.3-6.3-11z m27.5 98.3v12.7H684V347h-12.6z m0-25.3v12.7H684v-12.7h-12.6z m0-25.2v12.6H684v-12.6h-12.6z m0-25.4v12.6H684v-12.6h-12.6z m105.2 14.4l-6.4 11 11 6.3 6.4-11-11-6.3z m-21.9-12.6l-6.4 11 11 6.3 6.4-11-11-6.3z m-22-12.7l-6.4 11 11 6.3 6.4-11-11-6.3z m232.1 181.6l-32-39.5 0.1-29.1c0-1.5-0.6-2.9-1.5-4l-30.9-38.1v-74.6c0-2-1-3.8-2.4-4.9v-47c0-2.1-1.8-3.9-4-3.9-2.1 0-3.9 1.8-3.9 3.9v47c-1.4 1.1-2.4 2.9-2.4 4.9v74.4l-31.1 38.4c-1 1.1-1.5 2.6-1.4 4.2l0.1 28.9-32.1 39.5c-1.1 1.1-1.8 2.6-1.8 4.3v408.5H780v-47.5c0.1-0.1 0.1-0.3 0.1-0.4l0.4-176.3v-23.6-0.7c-0.1-6.6-1.8-12.2-4.8-16.4-3.5-4.7-8.6-7.3-15.3-7.3H701.7v-27.6c-0.1-6.6-1.8-12.2-4.9-16.4-3.4-4.7-8.4-7.3-15.1-7.3h-82.3c-6.7 0-11.7 2.6-15.3 7.3-3 4.2-4.7 9.8-4.8 16.4v0.8l0.1 30.5c0 3.5 2.8 6.3 6.3 6.3 3.4 0 6.3-2.8 6.3-6.3l-0.1-30.5v-0.7-0.1c0.1-3.8 0.9-6.9 2.4-9 1-1.4 2.6-2.3 4.9-2.3h82.3c2.3 0 4 0.9 5 2.3 1.5 2 2.3 5.2 2.4 9V582.3h-11c-6.7 0-11.7 2.6-15.1 7.3-3.2 4.2-4.8 9.8-4.9 16.4v0.8l0.3 89.2h-23.9c-9.8-4.9-20.5-7.4-31.3-7.4-11.3 0-22.6 2.8-32.8 8.1l-47.3-0.6h-0.4c0.1-0.1 0.5-0.1 0-0.1-6.9 0-12.2 2.5-15.9 6.9-3.5 4-5.3 9.6-5.4 16.1v8.2c-10.5-0.1-19.8 3.2-27.4 8.7-4.2 3.2-7.9 6.9-11.1 11.3l-0.5-250.7h43.9V573c0 3.4 2.9 6.3 6.3 6.3 3.5 0 6.3-2.9 6.3-6.3V444.2v-0.7c-0.1-6.7-1.6-12.2-4.8-16.4-3.5-4.7-8.6-7.3-15.1-7.3h-0.1H447V281.3v-0.3c-0.1-6.6-1.9-12.2-5.4-16.4l-59.2-86.2v-85c0-3.5-2.8-6.4-6.3-6.4s-6.3 2.9-6.3 6.4V178L311 263.3c-0.3 0.3-0.5 0.6-0.8 0.9-3.8 4.3-5.7 10.1-5.8 16.9v0.6l0.3 77.8c-0.1 1-0.3 2.1-0.3 3.2v0.6l0.3 68.4 1 423.2h-95.8V260c0-0.9-0.3-1.8-0.6-2.5v-0.3c-0.4-0.6-0.8-1.1-1.3-1.6v-0.1h-0.1l-0.4-0.4-50.9-42.1c0.1-0.6 0.3-1.1 0.3-1.8V58c0-3.4-2.9-6.3-6.3-6.3-3.5 0-6.4 2.9-6.4 6.3v144.7L117 180.1V58c0-3.4-2.8-6.3-6.3-6.3s-6.3 2.9-6.3 6.3v365.9l-50.4 41c-1.6 1.1-2.8 3-2.8 5.2V861c0 3.5 2.9 6.3 6.4 6.3H960c3.5 0 6.3-2.8 6.3-6.3v-0.5c0.1-0.5 0.3-1 0.3-1.6V446.1c0-1.6-0.7-3.2-1.8-4.3zM104.2 854.6H63.9V473.1l40.3-32.9v414.4z m12.8-658l76.6 63.5-76.6 63.5v-127z m0 244.2l76.6 63.5-76.6 63.6V440.8z m0 153.9l76.6 63.5-76.6 63.6V594.7z m80.1 259.9H117v-106l80.2 66.6v39.4z m0-55.8l-76.6-63.5 76.6-63.5v127z m0-154l-76.6-63.5 76.6-63.4v126.9z m0-154l-76.9-63.7 76.9-62.6v126.3z m0-140.5c-1.5 0-3 0.4-4.3 1.5L117 413.6v-73.5l80.2-66.6v76.8z m486.1 358.4h0.4c2.9 0 5 0.9 6.3 2.4 1.5 1.8 2.3 4.7 2.4 8.1v9.6c-1.1 0.3-2.3 0.6-3.3 0.9-6.3 1.9-12.4 4.8-18.2 8.4-4.3-12-10.7-21.8-18.5-29.4h30.9z m-169 10.8v-0.4c0-3.4 0.9-6.3 2.4-8.1 1.3-1.5 3.3-2.4 6.2-2.4h0.1l30.8 0.4c-7.6 7.6-13.9 17.3-18.2 29-5.7-3.7-11.7-6.6-18-8.4-1.1-0.3-2.3-0.6-3.3-0.9v-9.2zM375.9 191.3l45.3 65.8h-90.5l45.2-65.8zM317 281.2c0.1-3.2 0.8-5.8 1.9-7.8 0.6-0.4 1-0.8 1.4-1.4l0.3-0.4c1.5-1.1 3.7-1.9 6.4-1.9h97.4c3.4 0 5.8 1 7.3 2.8l0.1 0.1c1.6 2 2.5 4.9 2.5 8.6v59.4c-2.9-1.3-6.1-2-9.8-2h-0.1c0 0.1-0.1 0.1-0.3 0.1v-0.1h-6.9v-11.3c0-4.8-1.3-9-3.5-12.1-1.9-2.6-4.4-4.5-7.6-5.4 0-0.1 0.1-0.4 0.1-0.6v-13c0-0.5-0.1 0.3-0.1-0.6 0-4-0.9-7.4-2.6-10.1-2.1-3.5-5.5-5.5-9.8-5.5h-37.8c-4.4 0-7.7 2-10 5.5-1.6 2.6-2.5 6.1-2.5 10.1 0 0.4-0.1 0.5-0.1 0.5v0.1h0.1v12.4c0 0.5 0 0.9 0.1 1.3-3.2 0.9-5.8 2.8-7.7 5.4-2.3 3.2-3.5 7.3-3.5 12.1 0 1.1-0.1 0-0.1 0.6h0.1v10.7h-4.9v0.1c-0.3-0.1-0.4-0.1-0.4-0.1-3.7 0-6.9 0.8-9.8 1.9l-0.1-58.9c-0.1-0.1-0.1-0.2-0.1-0.5z m85 40.6h0.1c0.8 0 1.1 0.3 1.4 0.6 0.8 1 1.1 2.8 1.1 5v11.1h-59.7v-10.8-0.3c0-2.3 0.4-4 1.1-5 0.3-0.4 0.9-0.6 1.5-0.6H402z m-46.2-12.6c0.1-0.3 0.1-0.5 0.1-0.8V296v-0.3-0.1c0-1.4 0.1-2.5 0.5-3.3H393c0.4 0.8 0.5 1.9 0.5 3.3v13.5h-37.7z m45.9 117.9c-3.2 4.2-4.8 9.8-4.9 16.4v0.8l0.1 45.4v1l0.8 364h-79.4l-0.3-110.4c0-0.4 0.1-0.9 0.1-1.4l-1-382.8c0.4-2.5 1.3-4.7 2.5-6.2 1.5-1.6 3.9-2.6 7.3-2.6h97.4c3.4 0 5.8 1 7.3 2.6 1.6 1.9 2.5 4.7 2.6 8.1v57.7h-17.5c-6.4 0-11.6 2.7-15 7.4z m7.8 17.1v-0.5-0.1c0-3.8 0.8-6.9 2.3-9 1.1-1.4 2.8-2.3 5-2.3h82.3c2.3 0 3.9 0.9 4.9 2.3 1.5 2 2.4 5.2 2.4 9v40.1h-96.9l-0.1-39.5h0.1z m16.8 335.6v74.9h-16l-0.8-358.2h40.3l0.8 277.1h-18c-3.4-0.1-6.3 2.6-6.3 6.2z m153.2 74.7H439v-68.4h31.8c3.5 0 6.4-2.8 6.4-6.3s-2.9-6.3-6.4-6.3h-5.5c0.4-1.4 0.8-2.8 1.1-4 2.9-10 8.2-18.2 15.3-23.4 6.9-5 15.6-7.3 25.8-5.7 2 0.3 4.2 0.8 6.3 1.4 7.4 2.3 14.5 6.3 21.2 11.2 6.8 5.2 13.4 11.3 19.2 17.5 2.4 2.5 6.4 2.6 8.9 0.3 2.5-2.4 2.6-6.4 0.3-9-5.3-5.5-11-11.1-17.1-16 5.2-16.8 15.1-28.7 27-36.1 2-1.1 4.2-2.3 6.3-3.3v148.1z m37.4 0h-24.8v-152c3.7-0.8 7.4-1.1 11.1-1.1 4.7 0 9.2 0.5 13.7 1.6v151.5z m150.5 0H629.5V707.7c1.3 0.6 2.5 1.4 3.8 2.1 11.8 7.2 21.7 19.2 26.8 35.9-6.1 4.9-11.7 10.5-17 16-2.4 2.5-2.3 6.6 0.3 9 2.5 2.4 6.4 2.3 8.8-0.3 5.9-6.2 12.4-12.4 19.3-17.5 6.7-4.9 13.7-8.9 21.1-11.2 2.3-0.6 4.3-1.1 6.4-1.4 10.1-1.6 18.9 0.6 25.8 5.7 7.1 5.3 12.2 13.5 15.3 23.4 0.4 1.4 0.8 2.6 1 4h-5.5c-3.4 0-6.3 2.8-6.3 6.3s2.9 6.3 6.3 6.3h31.9v68.5z m0.4-248.1v24l-0.3 143.1h-13.6c-0.5-2.6-1-5.2-1.8-7.6-3.8-12.7-10.6-23.2-19.9-30.1-7.7-5.5-16.9-8.7-27.4-8.7v-7.8c-0.1-0.1-0.1-0.1-0.1-0.3 0-6.4-1.9-12.1-5.3-16.1-3.8-4.4-9.1-6.8-16-6.8H671l-0.1-89.2v-0.4-0.1c0-3.9 0.9-7.1 2.3-9.1 1.1-1.4 2.8-2.3 5-2.3h82.3c2.3 0 3.9 0.9 5 2.3 1.5 2 2.3 5.2 2.3 9.1z m66.4 248.2V448.4l21.2-26.1 2 432.4h-23.2z m83.8 0h-48l-2.1-479.1 24.2-29.9c0.6 0.3 1.4 0.4 2 0.4 0.6 0 1.3-0.1 1.9-0.3l24.2 29.7-2.2 479.2z m35.8 0h-23.2l2-432.4 21.2 26.1v406.3z m-447.1-271v12.7h12.6v-12.7h-12.6z m0.2 101.4v7.9h12.6V685h-12.6z m0-25.4v12.6h12.6v-12.6h-12.6z m-0.2-25.3l0.1 12.6h12.6v-12.6h-12.7z m0-25.3v12.7l12.7-0.1V609h-12.7z m73.3-10.1l0.1 12.6h12.6v-12.6H580z m0.1 76l0.1 11.1h12.6v-11.2l-12.7 0.1z m12.6-25.4h-12.6v12.6h12.7l-0.1-12.6z m-12.6-25.3v12.6h12.6v-12.6h-12.6z" fill="#1E1B1E" /><path d="M450.6 773.5h-18c-3.4 0-6.3 2.8-6.3 6.3v74.9h-16l-0.8-358.2h40.3l0.8 277zM197.1 815.2v39.4H117v-106z" fill="#FFB895" /><path d="M197.1 671.7v127.1l-76.6-63.5z" fill="#FFD3AE" /><path d="M193.6 658.2L117 721.8V594.7z" fill="#FFB895" /><path d="M197.1 517.8v127l-76.6-63.6z" fill="#FFD3AE" /><path d="M193.6 504.3L117 567.9V440.8z" fill="#FFB895" /><path d="M197.1 364.5v126.3l-76.9-63.6z" fill="#FFD3AE" /><path d="M197.1 273.5v76.8c-1.5 0-3 0.4-4.3 1.5L117 413.6v-73.5l80.1-66.6z" fill="#FFB895" /><path d="M193.6 260.2L117 323.6v-127z" fill="#FFD3AE" /><path d="M767.4 786.1v68.4H629.5V707.7c1.3 0.6 2.5 1.4 3.8 2.1 11.8 7.2 21.7 19.2 26.8 35.9-6.1 4.9-11.7 10.5-17 16-2.4 2.5-2.3 6.6 0.3 9 2.5 2.4 6.4 2.3 8.8-0.3 5.9-6.2 12.4-12.4 19.3-17.5 6.7-4.9 13.7-8.9 21.1-11.2 2.3-0.6 4.3-1.1 6.4-1.4 10.1-1.6 18.9 0.6 25.8 5.7 7.1 5.3 12.2 13.5 15.3 23.4 0.4 1.4 0.8 2.6 1 4h-5.5c-3.4 0-6.3 2.8-6.3 6.3s2.9 6.3 6.3 6.3h31.8zM579.5 706.4v148.1H439v-68.4h31.8c3.5 0 6.4-2.8 6.4-6.3s-2.9-6.3-6.4-6.3h-5.5c0.4-1.4 0.8-2.8 1.1-4 2.9-10 8.2-18.2 15.3-23.4 6.9-5 15.6-7.3 25.8-5.7 2 0.3 4.2 0.8 6.3 1.4 7.4 2.3 14.5 6.3 21.2 11.2 6.8 5.2 13.4 11.3 19.2 17.5 2.4 2.5 6.4 2.6 8.9 0.3 2.5-2.4 2.6-6.4 0.3-9-5.3-5.5-11-11.1-17.1-16 5.2-16.8 15.1-28.7 27-36.1 1.9-1.2 4-2.3 6.2-3.3z" fill="#AAD264" /><path d="M767.8 606.3v24.1l-0.3 143.1h-13.6c-0.5-2.6-1-5.2-1.8-7.6-3.8-12.7-10.6-23.2-19.9-30.1-7.7-5.5-16.9-8.7-27.4-8.7v-7.8c-0.1-0.1-0.1-0.1-0.1-0.3 0-6.4-1.9-12.1-5.3-16.1-3.8-4.4-9.1-6.8-16-6.8H671l-0.1-89.2v-0.4-0.1c0-3.9 0.9-7.1 2.3-9.1 1.1-1.4 2.8-2.3 5-2.3h82.3c2.3 0 3.9 0.9 5 2.3 1.5 1.9 2.3 5.1 2.3 9z" fill="#FFB895" /><path d="M104.2 440.2v414.4H63.9V473.1z" fill="#FFD3AE" /><path d="M920.2 375.5L918 854.6h-48l-2.1-479.1 24.2-29.9c0.6 0.3 1.4 0.4 2 0.4 0.6 0 1.3-0.1 1.9-0.3l24.2 29.8zM506.5 443.6v40.1h-96.9l-0.1-39.5h0.1v-0.5-0.1c0-3.8 0.8-6.9 2.3-9 1.1-1.4 2.8-2.3 5-2.3h82.3c2.3 0 3.9 0.9 4.9 2.3 1.5 2 2.4 5.2 2.4 9z" fill="#FFB895" /><path d="M434.4 362v57.7h-17.5c-6.6 0-11.7 2.6-15.1 7.3-3.2 4.2-4.8 9.8-4.9 16.4v0.8l0.1 45.4v1l0.8 364h-79.4l-0.4-110.3c0-0.4 0.1-0.9 0.1-1.4l-1-382.8c0.4-2.5 1.3-4.7 2.5-6.2 1.5-1.6 3.9-2.6 7.3-2.6h97.4c3.4 0 5.8 1 7.3 2.6 1.8 1.9 2.6 4.7 2.8 8.1z" fill="#FFD3AE" /><path d="M912.7 952.1H85c-16.5 0-29.4-7.2-29.4-16.4s12.8-16.4 29.4-16.4h827.7c16.5 0 29.4 7.2 29.4 16.4-1.8 9.2-14.7 16.4-29.4 16.4z" fill="#6EA573" /><path d="M815.5 982.9H167.6c-14.7 0-27.5-7.2-27.5-15.4s12.8-15.4 27.5-15.4h647.9c14.7 0 27.5 7.2 27.5 15.4s-11 15.4-27.5 15.4z" fill="#AAD264" /></svg>