<svg width="98" height="44" xmlns="http://www.w3.org/2000/svg">
  <g>
    <title>background</title>
    <rect fill="none" id="canvas_background" height="6.489796" width="24.040818" y="-1" x="-1"/>
  </g>
  <g>
    <title>Layer 1</title>
    <path id="svg_7" fill="white"
          d="m48.1905,9.95239c-6.6524,0 -12.0476,5.39521 -12.0476,12.04761l0,8.9048c0,1.7285 1.4143,3.1428 3.1428,3.1428c1.7286,0 3.1429,-1.4143 3.1429,-3.1428l0,-8.9048c0,-3.1952 2.5667,-5.7619 5.7619,-5.7619c3.1952,0 5.7619,2.5667 5.7619,5.7619l0,8.9048c0,1.7285 1.4143,3.1428 3.1429,3.1428c1.7285,0 3.1428,-1.4143 3.1428,-3.1428l0,-8.9048c0,-6.6524 -5.3952,-12.04761 -12.0476,-12.04761z"/>
    <path id="svg_8" fill="white"
          d="m86.4286,22c0,-6.6524 -5.3953,-12.04761 -12.0477,-12.04761c-6.6524,0 -12.0476,5.39521 -12.0476,12.04761c0,0.1048 0,0.2095 0,0.3667c0,0.0524 0,0.1047 0,0.1571c0,0.2095 0,0.3667 0.0524,0.5238c0.5238,6.181 5.7095,11 11.9952,11c1.7286,0 3.1429,-1.4143 3.1429,-3.1428c0,-1.7286 -1.4143,-3.1429 -3.1429,-3.1429c-1.7809,0 -3.4047,-0.8381 -4.4523,-2.0952l13.3571,0c1.7286,0 3.1429,-1.4143 3.1429,-3.1429c0,-0.1571 0,-0.3666 0,-0.5238zm-12.0477,-5.7619c2.2524,0 4.1905,1.2571 5.1334,3.1429l-10.2667,0c0.9429,-1.8858 2.8809,-3.1429 5.1333,-3.1429z"/>
    <path
      d="m48.1905,10.813078c-6.6524,0 -12.0476,5.39521 -12.0476,12.04761l0,8.9048c0,1.7285 1.4143,3.1428 3.1428,3.1428c1.7286,0 3.1429,-1.4143 3.1429,-3.1428l0,-8.9048c0,-3.1952 2.5667,-5.7619 5.7619,-5.7619c3.1952,0 5.7619,2.5667 5.7619,5.7619l0,8.9048c0,1.7285 1.4143,3.1428 3.1429,3.1428c1.7285,0 3.1428,-1.4143 3.1428,-3.1428l0,-8.9048c0,-6.6524 -5.3952,-12.04761 -12.0476,-12.04761z"
      fill="white" id="svg_11"/>
    <path
      d="m86.4286,22.860688c0,-6.6524 -5.3953,-12.04761 -12.0477,-12.04761c-6.6524,0 -12.0476,5.39521 -12.0476,12.04761c0,0.1048 0,0.2095 0,0.3667c0,0.0524 0,0.1047 0,0.1571c0,0.2095 0,0.3667 0.0524,0.5238c0.5238,6.181 5.7095,11 11.9952,11c1.7286,0 3.1429,-1.4143 3.1429,-3.1428c0,-1.7286 -1.4143,-3.1429 -3.1429,-3.1429c-1.7809,0 -3.4047,-0.8381 -4.4523,-2.0952l13.3571,0c1.7286,0 3.1429,-1.4143 3.1429,-3.1429c0,-0.1571 0,-0.3666 0,-0.5238zm-12.0477,-5.7619c2.2524,0 4.1905,1.2571 5.1334,3.1429l-10.2667,0c0.9429,-1.8858 2.8809,-3.1429 5.1333,-3.1429z"
      fill="white" id="svg_12"/>
    <path stroke="null" id="svg_18"
          d="m18.360077,22.521832c0,0 0.287081,4.210521 4.019134,4.210521c3.732053,0 3.827747,-4.090221 3.827747,-4.090221c-4.114827,-0.191387 -7.846881,-0.1203 -7.846881,-0.1203z"
          stroke-width="null" fill="white"/>
    <path id="svg_19"
          d="m10.178273,22.860684l0,0c0,-6.685543 5.419703,-12.105248 12.105244,-12.105248l0,0c3.210509,0 6.289526,1.27537 8.559698,3.545544c2.270174,2.270175 3.545545,5.349191 3.545545,8.559704l0,0c0,6.685543 -5.419703,12.105248 -12.105244,12.105248l0,0c-6.68554,0 -12.105244,-5.419706 -12.105244,-12.105248zm6.052622,0l0,0c0,3.342771 2.709853,6.052624 6.052622,6.052624c3.342771,0 6.052622,-2.709853 6.052622,-6.052624c0,-3.342771 -2.709852,-6.052624 -6.052622,-6.052624l0,0c-3.342769,0 -6.052622,2.709854 -6.052622,6.052624z"
          stroke-width="null" fill="white"/>
  </g>
</svg>
