<svg width="100" height="44" xmlns="http://www.w3.org/2000/svg">
  <g>
    <title>background</title>
    <rect x="-1" y="-1" width="218" height="46" id="canvas_background" fill="none"/>
  </g>
  <defs>
    <filter id="svg_21_blur">
      <feGaussianBlur stdDeviation="0" in="SourceGraphic"/>
    </filter>
    <filter height="200%" width="200%" y="-50%" x="-50%" id="svg_2_blur">
      <feGaussianBlur stdDeviation="0.6" in="SourceGraphic"/>
    </filter>
  </defs>
  <g>
    <title>Layer 1</title>
    <path stroke-width="NaN" filter="url(#svg_2_blur)"
          d="m87.594781,22.568976c0,-6.6524 -5.3953,-12.04761 -12.0477,-12.04761c-6.6524,0 -12.0476,5.39521 -12.0476,12.04761c0,0.1048 0,0.2095 0,0.3667c0,0.0524 0,0.1047 0,0.1571c0,0.2095 0,0.3667 0.0524,0.5238c0.5238,6.181 5.7095,11 11.9952,11c1.7286,0 3.1429,-1.4143 3.1429,-3.1428c0,-1.7286 -1.4143,-3.1429 -3.1429,-3.1429c-1.7809,0 -3.4047,-0.8381 -4.4523,-2.0952l13.3571,0c1.7286,0 3.1429,-1.4143 3.1429,-3.1429c0,-0.1571 0,-0.3666 0,-0.5238zm-12.0477,-5.7619c2.2524,0 4.1905,1.2571 5.1334,3.1429l-10.2667,0c0.9429,-1.8858 2.8809,-3.1429 5.1333,-3.1429z"
          fill="#cccccc" id="svg_5"/>
    <path stroke-width="NaN" filter="url(#svg_2_blur)"
          d="m48.77359,11.007274c-6.6524,0 -12.0476,5.39521 -12.0476,12.04761l0,8.9048c0,1.7285 1.4143,3.1428 3.1428,3.1428c1.7286,0 3.1429,-1.4143 3.1429,-3.1428l0,-8.9048c0,-3.1952 2.5667,-5.7619 5.7619,-5.7619c3.1952,0 5.7619,2.5667 5.7619,5.7619l0,8.9048c0,1.7285 1.4143,3.1428 3.1429,3.1428c1.7285,0 3.1428,-1.4143 3.1428,-3.1428l0,-8.9048c0,-6.6524 -5.3952,-12.04761 -12.0476,-12.04761z"
          fill="#cccccc" id="svg_4"/>
    <path filter="url(#svg_2_blur)" fill="#cccccc" stroke-width="NaN" stroke-opacity="null"
          d="m17.684907,23.82911c0,0 8.531153,0 8.531153,0c0,0 0.306527,4.05851 -4.141336,4.05851c-4.447864,0 -4.389817,-4.05851 -4.389817,-4.05851z"
          id="svg_3" stroke="null"/>
    <path filter="url(#svg_2_blur)" stroke="null" fill="#b2b2b2" stroke-width="NaN"
          d="m9.302017,23.172067l0,0c0,-6.986789 5.663911,-12.650701 12.650697,-12.650701l0,0c3.355172,0 6.572928,1.332837 8.945391,3.705304c2.372467,2.372467 3.705305,5.590222 3.705305,8.945397l0,0c0,6.986788 -5.663911,12.650701 -12.650697,12.650701l0,0c-6.986786,0 -12.650697,-5.663913 -12.650697,-12.650701l0.000001,0zm6.325348,0l0,0c0,3.493394 2.831957,6.325351 6.325348,6.325351c3.493394,0 6.325348,-2.831957 6.325348,-6.325351c0,-3.493394 -2.831956,-6.325351 -6.325348,-6.325351l0,0c-3.493392,0 -6.325348,2.831958 -6.325348,6.325351z"
          id="svg_2"/>
    <path stroke-width="NaN" filter="url(#svg_21_blur)"
          d="m48.1905,9.743912c-6.6524,0 -12.0476,5.39521 -12.0476,12.04761l0,8.9048c0,1.7285 1.4143,3.1428 3.1428,3.1428c1.7286,0 3.1429,-1.4143 3.1429,-3.1428l0,-8.9048c0,-3.1952 2.5667,-5.7619 5.7619,-5.7619c3.1952,0 5.7619,2.5667 5.7619,5.7619l0,8.9048c0,1.7285 1.4143,3.1428 3.1429,3.1428c1.7285,0 3.1428,-1.4143 3.1428,-3.1428l0,-8.9048c0,-6.6524 -5.3952,-12.04761 -12.0476,-12.04761z"
          fill="white" id="svg_7"/>
    <path stroke-width="NaN" filter="url(#svg_21_blur)"
          d="m86.4286,21.791522c0,-6.6524 -5.3953,-12.04761 -12.0477,-12.04761c-6.6524,0 -12.0476,5.39521 -12.0476,12.04761c0,0.1048 0,0.2095 0,0.3667c0,0.0524 0,0.1047 0,0.1571c0,0.2095 0,0.3667 0.0524,0.5238c0.5238,6.181 5.7095,11 11.9952,11c1.7286,0 3.1429,-1.4143 3.1429,-3.1428c0,-1.7286 -1.4143,-3.1429 -3.1429,-3.1429c-1.7809,0 -3.4047,-0.8381 -4.4523,-2.0952l13.3571,0c1.7286,0 3.1429,-1.4143 3.1429,-3.1429c0,-0.1571 0,-0.3666 0,-0.5238zm-12.0477,-5.7619c2.2524,0 4.1905,1.2571 5.1334,3.1429l-10.2667,0c0.9429,-1.8858 2.8809,-3.1429 5.1333,-3.1429z"
          fill="white" id="svg_8"/>
    <path filter="url(#svg_21_blur)" stroke="null" fill="#25bef6" stroke-width="NaN"
          d="m8.718927,22.394613l0,0c0,-6.986789 5.663911,-12.650701 12.650697,-12.650701l0,0c3.355172,0 6.572928,1.332837 8.945391,3.705303c2.372466,2.372468 3.705305,5.590222 3.705305,8.945398l0,0c0,6.986788 -5.663911,12.650701 -12.650697,12.650701l0,0c-6.986786,0 -12.650697,-5.663913 -12.650697,-12.650701l0.000001,0zm6.325348,0l0,0c0,3.493394 2.831957,6.325351 6.325348,6.325351c3.493394,0 6.325348,-2.831957 6.325348,-6.325351c0,-3.493394 -2.831956,-6.325351 -6.325348,-6.325351l0,0c-3.493392,0 -6.325348,2.831958 -6.325348,6.325351z"
          id="svg_19"/>
    <path filter="url(#svg_21_blur)" fill="#0442ba" stroke-width="NaN" stroke-opacity="null"
          fill-opacity="null"
          d="m17.101817,23.24602c0,0 8.531153,0 8.531153,0c0,0 0.306527,4.05851 -4.141336,4.05851c-4.447864,0 -4.389817,-4.05851 -4.389817,-4.05851z"
          id="svg_21" stroke="null"/>
  </g>
</svg>
