<svg width="216" height="44" xmlns="http://www.w3.org/2000/svg">
 <defs>
  <linearGradient y2="0" x2="0.665117" y1="1" x1="0.665117" id="paint0_linear">
   <stop stop-color="#2196F3"/>
   <stop stop-color="#4BA4FA" offset="1"/>
  </linearGradient>
 </defs>
 <g>
  <title>background</title>
  <rect fill="none" id="canvas_background" height="6.489796" width="24.040818" y="-1" x="-1"/>
 </g>
 <g>
  <title>Layer 1</title>
  <path id="svg_1" fill="#747B7F"
        d="m111.188,22.243001c0,0.9687 -0.223,1.748 -0.668,2.3379c-0.446,0.5859 -1.043,0.8789 -1.793,0.8789c-0.801,0 -1.42,-0.2832 -1.858,-0.8496l-0.053,0.7324l-0.996,0l0,-9l1.084,0l0,3.3574c0.438,-0.5429 1.041,-0.8144 1.811,-0.8144c0.769,0 1.373,0.291 1.81,0.873c0.442,0.582 0.663,1.3789 0.663,2.3906l0,0.0938zm-1.084,-0.1231c0,-0.7382 -0.143,-1.3085 -0.428,-1.7109c-0.285,-0.4023 -0.696,-0.6035 -1.231,-0.6035c-0.715,0 -1.228,0.332 -1.541,0.9961l0,2.7422c0.332,0.664 0.85,0.9961 1.553,0.9961c0.52,0 0.924,-0.2012 1.213,-0.6035c0.289,-0.4024 0.434,-1.0079 0.434,-1.8165zm4.458,1.6348l1.477,-4.7519l1.16,0l-2.549,7.3183c-0.394,1.0547 -1.021,1.582 -1.88,1.582l-0.206,-0.0175l-0.404,-0.0762l0,-0.8789l0.293,0.0234c0.367,0 0.652,-0.0742 0.856,-0.2226c0.207,-0.1485 0.377,-0.4199 0.509,-0.8145l0.241,-0.6445l-2.262,-6.2695l1.183,0l1.582,4.7519z"/>
  <path id="svg_4" fill="url(#paint0_linear)"
        d="m0.108108,22c0,-12.15026 9.66463,-22 21.5866,-22l52.8268,0c11.922,0 21.5866,9.84974 21.5866,22c0,12.1503 -9.6646,22 -21.5866,22l-52.8268,0c-11.92197,0 -21.5866,-9.8497 -21.5866,-22z"/>
  <circle id="svg_5" fill="white" r="12.0476" cy="22" cx="22"/>
  <circle id="svg_6" fill="#2196F3" r="5.7619" cy="22.000001" cx="22"/>
  <path id="svg_7" fill="white"
        d="m48.1905,9.95239c-6.6524,0 -12.0476,5.39521 -12.0476,12.04761l0,8.9048c0,1.7285 1.4143,3.1428 3.1428,3.1428c1.7286,0 3.1429,-1.4143 3.1429,-3.1428l0,-8.9048c0,-3.1952 2.5667,-5.7619 5.7619,-5.7619c3.1952,0 5.7619,2.5667 5.7619,5.7619l0,8.9048c0,1.7285 1.4143,3.1428 3.1429,3.1428c1.7285,0 3.1428,-1.4143 3.1428,-3.1428l0,-8.9048c0,-6.6524 -5.3952,-12.04761 -12.0476,-12.04761z"/>
  <path id="svg_8" fill="white"
        d="m86.4286,22c0,-6.6524 -5.3953,-12.04761 -12.0477,-12.04761c-6.6524,0 -12.0476,5.39521 -12.0476,12.04761c0,0.1048 0,0.2095 0,0.3667c0,0.0524 0,0.1047 0,0.1571c0,0.2095 0,0.3667 0.0524,0.5238c0.5238,6.181 5.7095,11 11.9952,11c1.7286,0 3.1429,-1.4143 3.1429,-3.1428c0,-1.7286 -1.4143,-3.1429 -3.1429,-3.1429c-1.7809,0 -3.4047,-0.8381 -4.4523,-2.0952l13.3571,0c1.7286,0 3.1429,-1.4143 3.1429,-3.1429c0,-0.1571 0,-0.3666 0,-0.5238zm-12.0477,-5.7619c2.2524,0 4.1905,1.2571 5.1334,3.1429l-10.2667,0c0.9429,-1.8858 2.8809,-3.1429 5.1333,-3.1429z"/>
  <text font-weight="bold" stroke="null"
        transform="matrix(0.4846230745315552,0,0,0.4846230745315552,63.5524171218276,-4.6222868002951145) "
        xml:space="preserve" text-anchor="start" font-family="Helvetica, Arial, sans-serif"
        font-size="24" id="svg_14" y="63.483722" x="122.262324" stroke-opacity="null"
        stroke-width="0" fill="#2196f3">Wan</text>
  <rect fill="white" stroke-width="null" x="13.844527" y="14.526508" width="16.841672"
        height="6.94719" id="svg_2"/>
  <path
    d="m0.108108,22c0,-12.15026 9.66463,-22 21.5866,-22l52.8268,0c11.922,0 21.5866,9.84974 21.5866,22c0,12.1503 -9.6646,22 -21.5866,22l-52.8268,0c-11.92197,0 -21.5866,-9.8497 -21.5866,-22z"
    fill="url(#paint0_linear)" id="svg_3"/>
  <circle cx="22" cy="22" r="12.0476" fill="white" id="svg_9"/>
  <circle stroke="null" cx="22" cy="21.999999" r="6.1619" fill="#2196F3" id="svg_10"/>
  <path
    d="m48.1905,9.95239c-6.6524,0 -12.0476,5.39521 -12.0476,12.04761l0,8.9048c0,1.7285 1.4143,3.1428 3.1428,3.1428c1.7286,0 3.1429,-1.4143 3.1429,-3.1428l0,-8.9048c0,-3.1952 2.5667,-5.7619 5.7619,-5.7619c3.1952,0 5.7619,2.5667 5.7619,5.7619l0,8.9048c0,1.7285 1.4143,3.1428 3.1429,3.1428c1.7285,0 3.1428,-1.4143 3.1428,-3.1428l0,-8.9048c0,-6.6524 -5.3952,-12.04761 -12.0476,-12.04761z"
    fill="white" id="svg_11"/>
  <path
    d="m86.4286,22c0,-6.6524 -5.3953,-12.04761 -12.0477,-12.04761c-6.6524,0 -12.0476,5.39521 -12.0476,12.04761c0,0.1048 0,0.2095 0,0.3667c0,0.0524 0,0.1047 0,0.1571c0,0.2095 0,0.3667 0.0524,0.5238c0.5238,6.181 5.7095,11 11.9952,11c1.7286,0 3.1429,-1.4143 3.1429,-3.1428c0,-1.7286 -1.4143,-3.1429 -3.1429,-3.1429c-1.7809,0 -3.4047,-0.8381 -4.4523,-2.0952l13.3571,0c1.7286,0 3.1429,-1.4143 3.1429,-3.1429c0,-0.1571 0,-0.3666 0,-0.5238zm-12.0477,-5.7619c2.2524,0 4.1905,1.2571 5.1334,3.1429l-10.2667,0c0.9429,-1.8858 2.8809,-3.1429 5.1333,-3.1429z"
    fill="white" id="svg_12"/>
  <circle stroke="null" cx="22" cy="21.680566" r="4.117071" fill="white" id="svg_13"/>
  <rect stroke="null" id="svg_16" height="4.267196" width="8.45902" y="17.531183" x="17.707796"
        stroke-width="null" fill="#2196F3"/>
  <text font-weight="bold"
        transform="matrix(0.4846230745315552,0,0,0.4846230745315552,63.5524171218276,-4.6222868002951145) "
        xml:space="preserve" text-anchor="start" font-family="Helvetica, Arial, sans-serif"
        font-size="24" id="svg_17" y="63.482349" x="171.627318" stroke-width="0" fill="#d84314">Laboratory</text>
 </g>
</svg>
