<svg width="97" height="44" xmlns="http://www.w3.org/2000/svg">
 <defs>
  <linearGradient id="paint0_linear" x1="0.665117" y1="1" x2="0.665117" y2="0">
   <stop stop-color="#2196F3"/>
   <stop offset="1" stop-color="#4BA4FA"/>
  </linearGradient>
 </defs>
 <g>
  <title>background</title>
  <rect x="-1" y="-1" width="99" height="46" id="canvas_background" fill="none"/>
 </g>
 <g>
  <title>Layer 1</title>
  <path
    d="m0.108108,22c0,-12.15026 9.66463,-22 21.5866,-22l52.8268,0c11.922,0 21.5866,9.84974 21.5866,22c0,12.1503 -9.6646,22 -21.5866,22l-52.8268,0c-11.92197,0 -21.5866,-9.8497 -21.5866,-22z"
    fill="url(#paint0_linear)" id="svg_4"/>
  <circle cx="22" cy="22" r="12.0476" fill="white" id="svg_5"/>
  <circle stroke="null" cx="22" cy="21.999999" r="6.1619" fill="#2196F3" id="svg_6"/>
  <path
    d="m48.1905,9.95239c-6.6524,0 -12.0476,5.39521 -12.0476,12.04761l0,8.9048c0,1.7285 1.4143,3.1428 3.1428,3.1428c1.7286,0 3.1429,-1.4143 3.1429,-3.1428l0,-8.9048c0,-3.1952 2.5667,-5.7619 5.7619,-5.7619c3.1952,0 5.7619,2.5667 5.7619,5.7619l0,8.9048c0,1.7285 1.4143,3.1428 3.1429,3.1428c1.7285,0 3.1428,-1.4143 3.1428,-3.1428l0,-8.9048c0,-6.6524 -5.3952,-12.04761 -12.0476,-12.04761z"
    fill="white" id="svg_7"/>
  <path
    d="m86.4286,22c0,-6.6524 -5.3953,-12.04761 -12.0477,-12.04761c-6.6524,0 -12.0476,5.39521 -12.0476,12.04761c0,0.1048 0,0.2095 0,0.3667c0,0.0524 0,0.1047 0,0.1571c0,0.2095 0,0.3667 0.0524,0.5238c0.5238,6.181 5.7095,11 11.9952,11c1.7286,0 3.1429,-1.4143 3.1429,-3.1428c0,-1.7286 -1.4143,-3.1429 -3.1429,-3.1429c-1.7809,0 -3.4047,-0.8381 -4.4523,-2.0952l13.3571,0c1.7286,0 3.1429,-1.4143 3.1429,-3.1429c0,-0.1571 0,-0.3666 0,-0.5238zm-12.0477,-5.7619c2.2524,0 4.1905,1.2571 5.1334,3.1429l-10.2667,0c0.9429,-1.8858 2.8809,-3.1429 5.1333,-3.1429z"
    fill="white" id="svg_8"/>
  <circle stroke="null" cx="22" cy="21.680566" r="4.117071" fill="white" id="svg_9"/>
  <rect stroke="null" id="svg_2" height="4.267196" width="8.45902" y="17.531183" x="17.707796"
        stroke-width="null" fill="#2196F3"/>
 </g>
</svg>
